<svg width="467" height="468" viewBox="0 0 467 468" fill="none" xmlns="http://www.w3.org/2000/svg">
<path d="M349.465 230.581C348.646 231.193 347.731 231.665 346.758 231.977C344.08 232.901 341.164 232.864 338.511 231.872C336.673 231.2 335.019 230.104 333.685 228.672C332.151 227.017 331.089 224.981 330.611 222.775C330.342 221.589 330.257 220.368 330.359 219.156C330.447 217.888 330.734 216.642 331.209 215.463C332.199 212.96 333.965 210.84 336.248 209.415C338.531 207.989 341.21 207.333 343.894 207.542C346.388 207.738 348.768 208.669 350.734 210.217C352.505 211.615 353.867 213.463 354.679 215.568C355.383 217.394 355.645 219.36 355.445 221.307C355.164 224.127 353.915 226.763 351.909 228.766C351.2 229.502 350.374 230.116 349.465 230.581C350.254 229.964 351.007 229.302 351.72 228.598C353.592 226.583 354.731 223.996 354.952 221.254C355.116 219.39 354.84 217.514 354.144 215.777C353.349 213.785 352.038 212.04 350.346 210.721C349.439 210.009 348.431 209.436 347.356 209.021C346.238 208.571 345.054 208.305 343.852 208.234C341.317 208.042 338.787 208.664 336.63 210.009C334.473 211.355 332.802 213.353 331.86 215.715C331.405 216.829 331.129 218.008 331.041 219.208C330.936 220.356 331.006 221.513 331.251 222.639C331.663 224.605 332.559 226.436 333.858 227.968C335.157 229.499 336.818 230.683 338.69 231.41C341.245 232.405 344.061 232.512 346.684 231.714C348.573 231.137 349.423 230.508 349.465 230.581Z" fill="#E0E0E0"/>
<path d="M351.72 246.896L352.035 247.179L352.979 248.092L356.672 251.732H356.536L366.23 245.595L366.156 245.804C365.453 243.832 364.677 241.608 363.848 239.268V239.153L363.932 239.058C365.63 237.244 367.074 235.208 368.223 233.005L368.286 232.879H375.368L375.116 233.068C375.924 229.553 376.784 225.807 377.676 221.884L377.823 222.198L371.581 219.198L371.423 219.124V218.946C371.343 216.454 370.93 213.984 370.196 211.602L370.143 211.423L370.269 211.298C371.801 209.787 373.48 208.15 375.19 206.409V206.807L368.979 197.123L369.367 197.26L362.831 199.547L362.631 199.61L362.484 199.474C360.679 197.784 358.657 196.341 356.473 195.182L356.284 195.088V194.878C356.284 192.706 356.284 190.346 356.284 187.943L356.557 188.29L345.425 185.719L345.824 185.53L342.802 191.825L342.718 192.014H342.498C340.032 192.094 337.587 192.499 335.227 193.221L334.871 193.126L334.797 193.053L334.64 192.895L334.335 192.581L333.727 191.962L332.499 190.734L330.065 188.279L330.506 188.331L320.77 194.406L320.917 193.986C321.679 196.19 322.438 198.372 323.193 200.533L323.267 200.733L323.12 200.89C321.424 202.69 319.98 204.712 318.829 206.902L318.724 207.08H318.525H311.59L311.915 206.818C311.034 210.623 310.17 214.347 309.323 217.991L309.145 217.624L315.388 220.646L315.555 220.73V220.918C315.624 223.41 316.03 225.88 316.762 228.262L316.814 228.441L316.678 228.567L311.747 233.435V233.068L317.801 242.814L317.486 242.709L324.033 240.443L324.18 240.391L324.295 240.496C326.103 242.196 328.128 243.649 330.317 244.818L330.443 244.881V245.028C330.443 247.546 330.443 249.812 330.391 251.952L330.223 251.753L341.386 254.387L341.207 254.47L344.271 248.249V248.186H344.334C346.212 248.133 348.081 247.901 349.915 247.494L351.269 247.168L351.72 247.074L351.279 247.231C350.986 247.326 350.545 247.462 349.936 247.609C348.105 248.07 346.231 248.341 344.344 248.417L344.439 248.343L341.47 254.638L341.407 254.754H341.291L330.097 252.225H329.939V252.057C329.939 249.959 329.939 247.64 329.939 245.122L330.055 245.332C327.82 244.158 325.753 242.69 323.907 240.968L324.159 241.02L317.622 243.318L317.423 243.391L317.308 243.213L311.212 233.487L311.086 233.288L311.254 233.12L316.164 228.241L316.091 228.546C315.342 226.126 314.922 223.617 314.842 221.086L315.02 221.359L308.725 218.358L308.495 218.243L308.547 217.991L311.16 206.566L311.212 206.304H311.485H318.42L318.115 206.482C319.3 204.239 320.778 202.165 322.511 200.313L322.438 200.67C321.683 198.508 320.92 196.326 320.151 194.123L320.056 193.861L320.298 193.714L330.023 187.639L330.265 187.482L330.464 187.681L332.898 190.136L334.115 191.374L334.734 191.993L335.038 192.308L335.196 192.455L335.269 192.539C334.556 192.36 335.07 192.486 334.912 192.444C337.333 191.703 339.842 191.287 342.372 191.206L342.068 191.406L345.089 185.111L345.205 184.859L345.477 184.922L356.651 187.503L356.924 187.566V187.849C356.924 190.241 356.924 192.612 356.924 194.784L356.745 194.48C358.985 195.665 361.056 197.143 362.904 198.876L362.568 198.802L369.115 196.536L369.356 196.441L369.503 196.672L375.567 206.409L375.693 206.618L375.515 206.797C373.805 208.496 372.116 210.154 370.584 211.665L370.668 211.361C371.403 213.782 371.816 216.29 371.895 218.82L371.727 218.568L377.97 221.6L378.169 221.695L378.117 221.905C377.204 225.828 376.323 229.563 375.504 233.078V233.277H375.305H368.37L368.569 233.152C367.385 235.378 365.906 237.435 364.174 239.268V239.058C364.992 241.419 365.747 243.633 366.429 245.616L366.482 245.752L366.356 245.825L356.588 251.848H356.515L356.452 251.785L352.874 248.092L351.961 247.126C351.875 247.055 351.795 246.978 351.72 246.896Z" fill="#E0E0E0"/>
<path fill-rule="evenodd" clip-rule="evenodd" d="M374.539 163.886C371.156 164.929 367.649 165.514 364.111 165.628L359.841 174.451L344.04 170.8V160.99C340.907 159.34 338.01 157.276 335.427 154.853L326.173 158.084L317.591 144.319L324.547 137.426C323.507 134.039 322.925 130.528 322.816 126.987L313.982 122.728L317.685 106.896H327.485C329.142 103.764 331.21 100.867 333.633 98.2822L330.401 89.0601L344.166 80.4779L351.059 87.4339C354.443 86.394 357.95 85.8118 361.488 85.7028L365.758 76.8688L381.558 80.5304V90.3295C384.686 91.9846 387.579 94.0486 390.161 96.4671L399.415 93.2462L408.008 107.001L401.031 113.946C402.079 117.328 402.665 120.836 402.772 124.375L411.596 128.645L407.945 144.445H398.145C396.487 147.573 394.42 150.466 391.997 153.048L395.229 162.302L381.432 170.894L374.539 163.928V163.886ZM371.392 140.805C374.312 138.982 376.626 136.334 378.041 133.196C379.456 130.058 379.909 126.571 379.343 123.175C378.776 119.78 377.215 116.629 374.858 114.12C372.501 111.612 369.452 109.859 366.099 109.083C362.745 108.307 359.236 108.542 356.017 109.76C352.797 110.978 350.011 113.123 348.01 115.925C346.01 118.726 344.885 122.058 344.777 125.498C344.67 128.939 345.586 132.334 347.408 135.255C348.616 137.196 350.194 138.881 352.054 140.213C353.913 141.545 356.016 142.497 358.243 143.015C360.471 143.534 362.778 143.608 365.035 143.234C367.291 142.86 369.451 142.045 371.392 140.836V140.805Z" fill="#E0E0E0"/>
<path fill-rule="evenodd" clip-rule="evenodd" d="M411.763 216.155C409.962 216.706 408.096 217.016 406.213 217.078L403.947 221.768L395.554 219.827V214.581C393.888 213.701 392.347 212.604 390.969 211.319L386.048 213.029L381.485 205.685L385.188 202.023C384.629 200.224 384.319 198.356 384.265 196.473L379.565 194.196L381.506 185.803H386.751C387.639 184.142 388.739 182.604 390.025 181.229L388.304 176.308L395.648 171.734L399.32 175.437C401.122 174.887 402.988 174.576 404.87 174.514L407.137 169.814L415.53 171.765V177.011C417.194 177.889 418.732 178.987 420.104 180.274L425.035 178.564L429.599 185.908L425.896 189.58C426.455 191.379 426.765 193.247 426.819 195.13L431.519 197.396L429.578 205.789H424.332C423.448 207.455 422.347 208.997 421.059 210.374L422.78 215.295L415.435 219.869L411.763 216.166V216.155ZM410.095 203.891C411.651 202.922 412.884 201.513 413.639 199.843C414.393 198.173 414.636 196.317 414.336 194.509C414.035 192.701 413.206 191.023 411.951 189.687C410.697 188.351 409.075 187.417 407.29 187.003C405.504 186.589 403.637 186.714 401.922 187.361C400.208 188.009 398.724 189.151 397.659 190.642C396.594 192.133 395.994 193.906 395.937 195.738C395.88 197.57 396.367 199.377 397.337 200.932C398.638 203.015 400.712 204.497 403.104 205.052C405.496 205.607 408.011 205.189 410.095 203.891Z" fill="#EBEBEB"/>
<path d="M89.808 123.315C89.9234 123.42 85.0028 128.466 78.8233 134.573C72.6437 140.679 67.5553 145.547 67.4504 145.442C67.3455 145.337 72.266 140.29 78.4456 134.184C84.6251 128.078 89.703 123.21 89.808 123.315Z" fill="#E0E0E0"/>
<path d="M89.8606 145.389C89.7557 145.494 84.6148 140.647 78.4458 134.573C72.2767 128.498 67.2932 123.483 67.3981 123.368C67.503 123.252 72.6439 128.099 78.8235 134.184C85.003 140.27 89.976 145.274 89.8606 145.389Z" fill="#E0E0E0"/>
<path d="M112.061 262.948C112.061 263.095 105.766 262.549 98.0439 261.741C90.3221 260.933 84.0691 260.136 84.0796 259.989C84.0901 259.842 90.3746 260.377 98.0964 261.196C105.818 262.014 112.082 262.79 112.061 262.948Z" fill="#E0E0E0"/>
<path d="M110.949 273.481C110.949 273.628 104.654 273.093 96.9319 272.275C89.2101 271.456 82.9466 270.68 82.9676 270.533C82.9886 270.386 89.2625 270.921 96.9843 271.729C104.706 272.537 110.97 273.334 110.949 273.481Z" fill="#E0E0E0"/>
<path d="M35.2937 239.814C35.2937 239.814 26.9843 239.216 27.7502 257.859C28.5161 276.503 30.4151 286.417 30.4151 286.417C30.4151 286.417 30.1738 290.551 26.9739 289.743C23.7739 288.935 17.7517 284.907 14.7721 287.918C11.7925 290.929 12.7892 295.818 16.8705 301.452C20.9517 307.086 29.4604 319.749 30.2367 320.893C31.0131 322.036 31.2859 324.135 29.0197 323.935C26.7535 323.736 11.4358 318.543 9.41093 325.96C7.38606 333.378 21.3609 347.153 22.8612 348.727C24.3614 350.301 24.4454 351.245 23.8369 352.179C23.2284 353.112 18.2449 350.878 13.8279 349.577C9.41093 348.276 4.06022 347.552 3.25237 351.927C2.44452 356.302 8.59259 369.102 31.6426 382.562L42.7322 388.07L53.2238 381.377C74.805 365.639 79.6521 352.326 78.4036 348.045C77.1551 343.764 71.9093 345.034 67.6497 346.776C63.3902 348.517 58.648 351.224 57.9555 350.353C57.2631 349.482 57.2421 348.517 58.5745 346.828C59.907 345.139 72.4339 330.041 69.6746 322.823C66.9153 315.605 52.1956 322.351 49.9609 322.823C47.7262 323.295 47.8626 321.113 48.4501 319.917C49.0377 318.721 56.2874 305.229 59.802 299.228C63.3167 293.226 63.9147 288.348 60.5365 285.589C57.1582 282.829 51.6606 287.456 48.597 288.579C45.5335 289.701 44.841 285.62 44.841 285.62C44.841 285.62 45.7328 275.548 44.6312 256.936C43.5296 238.324 35.1258 239.814 35.1258 239.814" fill="#EBEBEB"/>
<path d="M35.9233 256.506C35.9316 256.635 35.9316 256.765 35.9233 256.894C35.9233 257.177 35.9233 257.555 36.0073 258.038C36.0807 259.087 36.1751 260.545 36.3115 262.444C36.5633 266.263 36.8886 271.803 37.2663 278.633C38.0217 292.272 38.9134 311.219 39.8262 332.14C40.739 353.06 41.5783 371.934 42.2603 385.647C42.6065 392.466 42.8898 398.006 43.0891 401.846C43.1835 403.745 43.257 405.224 43.3094 406.252C43.3094 406.735 43.3094 407.123 43.3094 407.396C43.3165 407.525 43.3165 407.655 43.3094 407.784C43.3094 407.784 43.3094 407.658 43.3094 407.396C43.3094 407.134 43.3094 406.745 43.2255 406.252C43.152 405.203 43.0471 403.755 42.9212 401.856C42.6694 398.037 42.3442 392.498 41.9665 385.657C41.2006 372.018 40.3193 353.081 39.4065 332.15C38.4938 311.22 37.6545 292.366 36.962 278.643C36.6158 271.813 36.3325 266.284 36.1437 262.444C36.0492 260.545 35.9758 259.066 35.9233 258.038C35.9233 257.545 35.9233 257.167 35.9233 256.894C35.9233 256.621 35.9233 256.506 35.9233 256.506Z" fill="#E0E0E0"/>
<path d="M22.9766 293.877C23.226 294.042 23.4549 294.235 23.6585 294.454C24.0887 294.842 24.7077 295.419 25.4211 296.143C26.8794 297.591 28.8519 299.647 30.9816 301.955L36.4058 307.894L38.053 309.677C38.2749 309.882 38.4689 310.115 38.63 310.37C38.3797 310.206 38.1475 310.016 37.9376 309.803C37.5179 309.404 36.8884 308.827 36.1855 308.093C34.7376 306.635 32.7757 304.557 30.6774 302.249L25.2113 296.353L23.5536 294.569C23.3298 294.367 23.1356 294.134 22.9766 293.877Z" fill="#E0E0E0"/>
<path d="M39.7317 310.002C39.6478 309.919 43.7081 305.669 48.786 300.56C53.8639 295.451 58.0711 291.285 58.155 291.369C58.2389 291.453 54.1787 295.702 49.0903 300.812C44.0018 305.921 39.8157 310.086 39.7317 310.002Z" fill="#E0E0E0"/>
<path d="M39.6897 342.138C39.9239 341.943 40.1811 341.778 40.4556 341.645L42.6273 340.428C44.4634 339.379 46.9814 337.973 49.7092 336.294C52.437 334.616 54.8605 333.021 56.6021 331.856L58.7005 330.482C58.9422 330.293 59.2065 330.134 59.4873 330.01C59.2802 330.235 59.0479 330.436 58.7949 330.608C58.3333 330.975 57.6513 331.489 56.8015 332.108C55.0914 333.336 52.6888 334.983 49.9505 336.651C47.2122 338.319 44.7047 339.725 42.7952 340.69C41.851 341.163 41.0956 341.54 40.5605 341.792C40.2822 341.935 39.9905 342.051 39.6897 342.138Z" fill="#E0E0E0"/>
<path d="M21.3188 330.891C21.589 330.975 21.8466 331.095 22.0847 331.248C22.5673 331.5 23.2493 331.888 24.0991 332.371C25.7778 333.325 28.0964 334.679 30.6459 336.189C33.1953 337.7 35.4825 339.096 37.1297 340.124L39.0706 341.351C39.3196 341.488 39.549 341.657 39.7526 341.855C39.4849 341.765 39.228 341.645 38.9867 341.498C38.5146 341.236 37.8221 340.858 36.9828 340.376C35.2936 339.421 32.975 338.067 30.4255 336.557C27.8761 335.046 25.5889 333.651 23.9417 332.622L22.0008 331.416C21.7528 331.27 21.5238 331.093 21.3188 330.891Z" fill="#E0E0E0"/>
<path d="M17.6782 359.25C18.0131 359.379 18.3361 359.537 18.6434 359.722L21.2349 361.149C23.4066 362.366 26.3967 364.076 29.6281 365.986C32.8596 367.895 35.8706 369.637 38.0214 370.927L40.5394 372.469C40.8547 372.644 41.1532 372.848 41.4312 373.078C41.0873 372.962 40.7595 372.804 40.4555 372.606L37.8745 371.189C35.7028 369.972 32.7232 368.262 29.4813 366.353C26.2394 364.443 23.2388 362.691 21.088 361.411L18.5805 359.869C18.2551 359.701 17.952 359.493 17.6782 359.25Z" fill="#E0E0E0"/>
<path d="M40.9697 372.595C41.2635 372.34 41.5877 372.121 41.935 371.945L44.6208 370.308C46.8975 368.913 50.0345 366.993 53.4337 364.769C56.833 362.544 59.8756 360.467 62.0683 358.946L64.6597 357.152C64.9575 356.905 65.2854 356.697 65.6355 356.533C65.3662 356.809 65.0711 357.058 64.7542 357.278C64.1666 357.75 63.3063 358.4 62.2362 359.198C60.1379 360.782 57.0848 362.912 53.675 365.125C50.2653 367.339 47.0968 369.238 44.7782 370.56C43.6136 371.221 42.6799 371.746 42.0084 372.092C41.6759 372.287 41.3286 372.455 40.9697 372.595Z" fill="#E0E0E0"/>
<path d="M57.6303 391.732H26.9529L36.9619 467.523H47.6213L57.6303 391.732Z" fill="#E0E0E0"/>
<path d="M28.5791 401.048C28.5791 401.048 28.5791 401.153 28.7365 401.311C28.9385 401.546 29.1939 401.73 29.4814 401.846C30.0168 402.028 30.5866 402.088 31.1481 402.018C31.7096 401.949 32.2481 401.754 32.7233 401.447C33.9613 400.765 35.0419 399.422 36.6996 398.824C38.5416 398.234 40.5278 398.275 42.3441 398.94C44.188 399.573 45.9492 400.425 47.5899 401.479C48.9512 402.351 50.3709 403.13 51.839 403.808C52.8416 404.254 53.9006 404.561 54.9864 404.72C55.2819 404.762 55.5799 404.783 55.8782 404.783C56.0776 404.783 56.1825 404.783 56.1825 404.783C54.7312 404.558 53.3186 404.131 51.9858 403.514C50.5448 402.804 49.1438 402.016 47.7892 401.153C46.127 400.054 44.3328 399.17 42.449 398.52C40.5272 397.824 38.4258 397.802 36.4898 398.457C35.6735 398.792 34.9184 399.26 34.2551 399.842C33.6991 400.336 33.1102 400.792 32.4925 401.206C32.0635 401.504 31.5744 401.704 31.0596 401.793C30.5449 401.882 30.0169 401.857 29.5129 401.72C29.1615 401.558 28.8445 401.33 28.5791 401.048Z" fill="#F5F5F5"/>
<path d="M29.6282 415.002C29.6282 415.002 29.8695 414.688 30.3416 414.194C31.0398 413.505 31.8766 412.972 32.7966 412.631C34.1635 412.137 35.615 411.919 37.0667 411.991C38.8563 412.13 40.6361 412.375 42.3964 412.726C44.1972 413.072 46.0397 413.146 47.8626 412.946C49.3502 412.756 50.8005 412.343 52.1641 411.718C53.0991 411.307 53.9858 410.793 54.808 410.187C55.1165 409.981 55.3924 409.73 55.6263 409.442C54.4911 410.174 53.3062 410.826 52.0802 411.393C50.7368 411.936 49.3243 412.289 47.8835 412.442C46.1037 412.616 44.308 412.528 42.5538 412.18C40.7705 411.827 38.9653 411.596 37.1506 411.488C35.6405 411.439 34.1366 411.703 32.7337 412.264C31.7854 412.64 30.9429 413.242 30.2787 414.016C30.102 414.229 29.944 414.458 29.8065 414.698C29.6911 414.908 29.6282 414.992 29.6282 415.002Z" fill="#F5F5F5"/>
<path d="M54.1576 422.472C53.9024 422.279 53.6145 422.134 53.3078 422.042C52.4937 421.734 51.6378 421.55 50.7688 421.497C49.4847 421.411 48.1949 421.485 46.9289 421.717C45.4916 421.948 43.9598 422.336 42.3546 422.682C40.8554 423.033 39.32 423.206 37.7803 423.196C36.5318 423.162 35.3007 422.895 34.1502 422.409C33.0982 421.908 32.162 421.194 31.4014 420.311C31.5216 420.609 31.7 420.88 31.9259 421.108C32.509 421.772 33.2235 422.308 34.0243 422.682C35.2014 423.239 36.4789 423.553 37.7803 423.605C39.3577 423.645 40.9337 423.483 42.47 423.123C44.1067 422.777 45.6175 422.367 47.0234 422.074C48.2561 421.828 49.5122 421.719 50.7688 421.748C51.9233 421.853 53.0611 422.096 54.1576 422.472Z" fill="#F5F5F5"/>
<path d="M32.3771 432.985C33.3165 432.583 34.3569 432.481 35.3567 432.691C36.4465 432.954 37.5025 433.342 38.5042 433.845C39.772 434.46 41.1404 434.84 42.5434 434.968C45.1093 435.187 47.6789 434.592 49.8876 433.268C50.5261 432.863 51.1204 432.392 51.6606 431.862C52.0278 431.464 52.2272 431.233 52.1957 431.212C51.384 431.841 50.5363 432.423 49.6567 432.953C47.4876 434.151 45.0119 434.676 42.5434 434.464C39.6373 434.296 37.4026 432.565 35.3882 432.366C34.6137 432.233 33.8179 432.306 33.08 432.576C32.5764 432.744 32.3561 432.974 32.3771 432.985Z" fill="#F5F5F5"/>
<path d="M34.0872 447.537C34.9682 447.558 35.8428 447.382 36.6472 447.023C38.1895 446.509 40.0884 445.334 42.3231 444.442C43.3622 444.024 44.4667 443.793 45.586 443.76C46.4908 443.76 47.3838 443.964 48.1984 444.358C48.9451 444.756 49.5938 445.315 50.0974 445.994C50.0562 445.756 49.9551 445.532 49.8036 445.344C49.4326 444.804 48.9404 444.359 48.3663 444.043C47.5138 443.572 46.5595 443.317 45.586 443.298C44.4057 443.301 43.2371 443.533 42.1448 443.98C39.8366 444.893 37.9481 446.078 36.5108 446.697C35.0735 447.316 34.0767 447.453 34.0872 447.537Z" fill="#F5F5F5"/>
<path d="M35.5874 454.304C36.2022 454.602 36.8554 454.814 37.5283 454.933C39.1263 455.32 40.7496 455.593 42.386 455.752C44.0209 455.912 45.6649 455.961 47.3065 455.899C47.9928 455.911 48.6776 455.83 49.3419 455.657C49.3419 455.5 46.1944 455.657 42.4384 455.259C38.6824 454.86 35.6294 454.167 35.5874 454.304Z" fill="#F5F5F5"/>
<path d="M466.362 466.296C466.362 466.453 361.949 466.568 233.186 466.568C104.423 466.568 0 466.453 0 466.296C0 466.138 104.381 466.023 233.186 466.023C361.991 466.023 466.362 466.149 466.362 466.296Z" fill="#263238"/>
<path d="M131.774 138.371C131.774 138.371 134.628 121.259 135.31 119.958C135.992 118.657 143.871 110.662 144.805 110.515C145.739 110.368 158.171 106.445 157.479 108.417C156.786 110.389 148.036 112.97 148.036 112.97L147.208 114.02C147.208 114.02 154.667 111.586 156.514 111.648C158.36 111.711 158.528 113.484 157.196 113.988C155.863 114.492 149.295 116.412 149.044 116.831C148.792 117.251 156.388 115.079 157.311 115.121C158.591 115.174 159.514 116.789 158.213 117.345C157.437 117.66 150.135 119.339 150.135 119.339C152.386 119.043 154.652 118.868 156.923 118.814C158.045 119.118 157.972 120.482 156.713 120.808C155.863 121.028 151.404 121.227 150.271 121.532C150.271 121.532 149.421 122.245 149.453 124.511C149.484 126.777 146.547 132.789 146.547 132.789L131.774 138.371Z" fill="#FFBE9D"/>
<path d="M157.468 108.365C156.968 109.006 156.348 109.544 155.643 109.949C154.907 110.445 154.127 110.873 153.314 111.229C152.39 111.575 151.362 111.932 150.292 112.278L147.994 113.054L148.12 112.981C146.809 114.402 145.388 115.717 143.871 116.915C145.038 115.384 146.322 113.946 147.711 112.614V112.561H147.784L150.051 111.764L153.062 110.715C153.857 110.392 154.628 110.013 155.37 109.582C156.692 108.879 157.416 108.291 157.468 108.365Z" fill="#EB996E"/>
<path d="M323.12 326.296L153.765 308.848C151.282 308.584 149.006 307.347 147.433 305.408C145.86 303.47 145.119 300.987 145.371 298.504L174.674 13.7829C175.042 10.2525 176.795 7.01206 179.549 4.77199C182.302 2.53192 185.831 1.47501 189.363 1.83297L350.849 18.4621C354.38 18.8301 357.62 20.5829 359.86 23.3363C362.1 26.0897 363.157 29.619 362.799 33.1504L333.423 317.871C333.166 320.351 331.938 322.629 330.008 324.207C328.078 325.786 325.602 326.536 323.12 326.296Z" fill="#292F36"/>
<path opacity="0.4" d="M323.12 326.296L153.765 308.848C151.282 308.584 149.006 307.347 147.433 305.408C145.86 303.47 145.119 300.987 145.371 298.504L174.674 13.7829C175.042 10.2525 176.795 7.01206 179.549 4.77199C182.302 2.53192 185.831 1.47501 189.363 1.83297L350.849 18.4621C354.38 18.8301 357.62 20.5829 359.86 23.3363C362.1 26.0897 363.157 29.619 362.799 33.1504L333.423 317.871C333.166 320.351 331.938 322.629 330.008 324.207C328.078 325.786 325.602 326.536 323.12 326.296Z" fill="black"/>
<path d="M306.029 324.533L136.643 307.096C134.158 306.832 131.88 305.593 130.307 303.653C128.734 301.712 127.994 299.226 128.249 296.741L157.626 12.0203C157.805 10.2711 158.328 8.57444 159.163 7.02717C159.998 5.47991 161.13 4.11237 162.494 3.00267C163.858 1.89297 165.428 1.06285 167.112 0.559721C168.797 0.0565926 170.565 -0.109686 172.314 0.0703813L333.759 16.6681C335.508 16.8476 337.204 17.37 338.752 18.2054C340.299 19.0408 341.666 20.1728 342.776 21.5368C343.886 22.9007 344.716 24.47 345.219 26.1548C345.722 27.8397 345.889 29.6072 345.708 31.3563L316.332 316.088C316.08 318.571 314.855 320.854 312.924 322.437C310.993 324.02 308.514 324.774 306.029 324.533Z" fill="#292F36"/>
<path d="M219.924 247.034L161.522 241.02C160.127 240.876 158.88 241.89 158.736 243.285L156.369 266.266C156.226 267.661 157.24 268.908 158.635 269.052L217.037 275.067C218.432 275.21 219.679 274.196 219.823 272.801L222.189 249.82C222.333 248.425 221.319 247.178 219.924 247.034Z" fill="#292F36"/>
<g opacity="0.4">
<path d="M219.924 247.034L161.522 241.02C160.127 240.876 158.88 241.89 158.736 243.285L156.369 266.266C156.226 267.661 157.24 268.908 158.635 269.052L217.037 275.067C218.432 275.21 219.679 274.196 219.823 272.801L222.189 249.82C222.333 248.425 221.319 247.178 219.924 247.034Z" fill="black"/>
</g>
<path d="M169.381 31.901L162.884 94.989L323.709 111.552L330.206 48.4639L169.381 31.901Z" fill="#FAFAFA"/>
<path d="M323.718 111.554C323.718 111.554 323.718 111.166 323.812 110.431C323.907 109.697 323.991 108.595 324.127 107.169C324.41 104.294 324.83 100.076 325.376 94.6311C326.425 83.7513 328.051 68.0034 330.023 48.4681L330.191 48.6779L169.366 32.1746L169.67 31.9333C167.393 53.9657 165.19 75.3161 163.155 95.0193L162.924 94.7255L278.174 106.728L311.642 110.243L320.613 111.208L322.931 111.46L323.729 111.554C323.729 111.554 323.466 111.554 322.952 111.491L320.665 111.271L311.747 110.389L278.279 107.022L162.871 95.2501H162.609V94.9983C164.634 75.2846 166.806 53.9657 169.093 31.9019V31.6291H169.366L330.233 48.2792H330.422V48.4681C328.324 68.0559 326.698 83.8457 325.554 94.7465C324.977 100.16 324.505 104.367 324.222 107.221C324.064 108.637 323.949 109.718 323.865 110.452L323.718 111.554Z" fill="#263238"/>
<path d="M194.447 123.65L171.456 121.282C170.257 121.159 169.185 122.031 169.062 123.23L166.694 146.221C166.57 147.42 167.442 148.492 168.641 148.615L191.632 150.983C192.831 151.107 193.903 150.235 194.027 149.036L196.395 126.045C196.518 124.846 195.646 123.774 194.447 123.65Z" fill="#292F36"/>
<g opacity="0.4">
<path d="M194.447 123.65L171.456 121.283C170.257 121.159 169.185 122.031 169.062 123.23L166.694 146.221C166.57 147.42 167.442 148.492 168.641 148.615L191.632 150.983C192.831 151.107 193.903 150.235 194.027 149.036L196.395 126.045C196.518 124.846 195.646 123.774 194.447 123.65Z" fill="black"/>
</g>
<path d="M190.233 123.22L167.242 120.853C166.043 120.729 164.971 121.601 164.847 122.8L162.479 145.791C162.356 146.99 163.228 148.062 164.427 148.186L187.418 150.553C188.617 150.677 189.689 149.805 189.812 148.606L192.18 125.615C192.304 124.416 191.432 123.344 190.233 123.22Z" fill="#263238"/>
<path d="M179.847 130.093L178.682 141.518L176.039 141.245L176.993 131.971L174.717 131.729L174.937 129.631L179.847 130.093Z" fill="white"/>
<path d="M232.568 127.587L209.577 125.219C208.378 125.096 207.306 125.967 207.182 127.166L204.815 150.158C204.691 151.357 205.563 152.428 206.762 152.552L229.753 154.92C230.952 155.043 232.024 154.171 232.148 152.973L234.515 129.981C234.639 128.782 233.767 127.71 232.568 127.587Z" fill="#292F36"/>
<g opacity="0.4">
<path d="M232.568 127.587L209.577 125.219C208.378 125.096 207.306 125.967 207.182 127.166L204.815 150.158C204.691 151.357 205.563 152.428 206.762 152.552L229.753 154.92C230.952 155.043 232.024 154.171 232.148 152.973L234.515 129.981C234.639 128.782 233.767 127.71 232.568 127.587Z" fill="black"/>
</g>
<path d="M228.345 127.147L205.353 124.779C204.154 124.655 203.082 125.527 202.959 126.726L200.591 149.717C200.468 150.916 201.339 151.988 202.538 152.112L225.53 154.48C226.728 154.603 227.8 153.731 227.924 152.532L230.292 129.541C230.415 128.342 229.543 127.27 228.345 127.147Z" fill="#263238"/>
<path d="M221.131 143.69L220.911 145.788L212.308 144.907L212.486 143.197L217.302 139.493C218.414 138.643 218.655 138.077 218.708 137.521C218.802 136.629 218.236 136.041 217.029 135.916C216.574 135.851 216.11 135.9 215.678 136.057C215.247 136.215 214.86 136.476 214.553 136.818L212.759 135.38C213.352 134.735 214.095 134.247 214.923 133.96C215.75 133.672 216.636 133.594 217.501 133.733C220.04 133.996 221.603 135.464 221.383 137.531C221.278 138.643 220.859 139.63 219.117 140.93L216.242 143.134L221.131 143.69Z" fill="white"/>
<path d="M272.084 131.656L249.093 129.288C247.894 129.165 246.822 130.037 246.698 131.236L244.33 154.227C244.207 155.426 245.079 156.498 246.278 156.621L269.269 158.989C270.468 159.113 271.54 158.241 271.663 157.042L274.031 134.051C274.155 132.852 273.283 131.78 272.084 131.656Z" fill="#292F36"/>
<g opacity="0.4">
<path d="M272.084 131.656L249.093 129.288C247.894 129.165 246.822 130.037 246.698 131.236L244.33 154.227C244.207 155.426 245.079 156.498 246.278 156.621L269.269 158.989C270.468 159.113 271.54 158.241 271.663 157.042L274.031 134.051C274.155 132.852 273.283 131.78 272.084 131.656Z" fill="black"/>
</g>
<path d="M267.871 131.216L244.88 128.848C243.681 128.725 242.609 129.597 242.485 130.795L240.117 153.787C239.994 154.986 240.866 156.058 242.065 156.181L265.056 158.549C266.255 158.672 267.327 157.801 267.45 156.602L269.818 133.61C269.942 132.411 269.07 131.339 267.871 131.216Z" fill="#263238"/>
<path d="M260.695 146.407C260.496 148.327 258.838 149.932 255.596 149.607C254.065 149.469 252.607 148.89 251.399 147.939L252.627 146.019C253.506 146.794 254.608 147.271 255.774 147.383C257.096 147.519 257.967 147.068 258.062 146.134C258.156 145.201 257.568 144.676 256.079 144.519L254.872 144.393L255.05 142.651L257.663 140.238L252.816 139.745L253.036 137.647L261.01 138.465L260.831 140.175L257.957 142.84C258.785 142.967 259.532 143.409 260.042 144.074C260.552 144.739 260.786 145.574 260.695 146.407Z" fill="white"/>
<path d="M311.61 135.726L288.619 133.358C287.42 133.234 286.348 134.106 286.225 135.305L283.857 158.296C283.733 159.495 284.605 160.567 285.804 160.691L308.795 163.059C309.994 163.182 311.066 162.31 311.19 161.111L313.558 138.12C313.681 136.921 312.809 135.849 311.61 135.726Z" fill="#292F36"/>
<g opacity="0.4">
<path d="M311.61 135.726L288.619 133.358C287.42 133.234 286.348 134.106 286.225 135.305L283.857 158.296C283.733 159.495 284.605 160.567 285.804 160.691L308.795 163.059C309.994 163.182 311.066 162.31 311.19 161.111L313.558 138.12C313.681 136.921 312.809 135.849 311.61 135.726Z" fill="black"/>
</g>
<path d="M307.481 135.283L284.489 132.916C283.291 132.792 282.219 133.664 282.095 134.863L279.727 157.854C279.604 159.053 280.476 160.125 281.674 160.249L304.666 162.616C305.865 162.74 306.937 161.868 307.06 160.669L309.428 137.678C309.551 136.479 308.68 135.407 307.481 135.283Z" fill="#263238"/>
<path d="M288.386 146.165L288.279 147.209L300.489 148.466L300.597 147.423L288.386 146.165Z" fill="white"/>
<path d="M296.985 142.21C296.946 142.603 296.791 142.975 296.541 143.279C296.29 143.583 295.955 143.806 295.577 143.92C295.199 144.034 294.797 144.033 294.42 143.918C294.042 143.803 293.708 143.578 293.458 143.273C293.209 142.968 293.056 142.595 293.018 142.203C292.98 141.81 293.059 141.415 293.246 141.068C293.433 140.721 293.718 140.437 294.066 140.251C294.414 140.066 294.81 139.989 295.202 140.028C295.728 140.081 296.211 140.341 296.545 140.75C296.88 141.159 297.038 141.685 296.985 142.21Z" fill="white"/>
<path d="M295.884 152.859C295.844 153.252 295.689 153.624 295.438 153.929C295.186 154.233 294.851 154.456 294.472 154.569C294.094 154.682 293.691 154.681 293.314 154.565C292.937 154.448 292.602 154.223 292.354 153.916C292.105 153.61 291.952 153.237 291.916 152.844C291.879 152.451 291.96 152.056 292.148 151.709C292.337 151.362 292.624 151.079 292.973 150.895C293.322 150.711 293.718 150.636 294.111 150.677C294.635 150.733 295.115 150.993 295.448 151.402C295.78 151.811 295.937 152.335 295.884 152.859Z" fill="white"/>
<path d="M190.324 163.704L167.333 161.336C166.134 161.212 165.062 162.084 164.939 163.283L162.571 186.274C162.448 187.473 163.319 188.545 164.518 188.669L187.51 191.037C188.708 191.16 189.78 190.288 189.904 189.089L192.272 166.098C192.395 164.899 191.523 163.827 190.324 163.704Z" fill="#292F36"/>
<g opacity="0.4">
<path d="M190.324 163.704L167.333 161.336C166.134 161.212 165.062 162.084 164.939 163.283L162.571 186.274C162.448 187.473 163.319 188.545 164.518 188.669L187.51 191.036C188.708 191.16 189.78 190.288 189.904 189.089L192.272 166.098C192.395 164.899 191.523 163.827 190.324 163.704Z" fill="black"/>
</g>
<path d="M186.11 163.274L163.119 160.906C161.92 160.782 160.848 161.654 160.724 162.853L158.357 185.845C158.233 187.043 159.105 188.115 160.304 188.239L183.295 190.607C184.494 190.73 185.566 189.858 185.69 188.659L188.057 165.668C188.181 164.469 187.309 163.397 186.11 163.274Z" fill="#263238"/>
<path d="M178.126 179.477L176.269 179.288L176.017 181.68L173.447 181.418L173.699 179.025L167.561 178.385L167.74 176.612L173.856 169.94L176.626 170.233L170.94 176.528L174.003 176.843L174.223 174.745L176.71 174.997L176.49 177.095L178.347 177.284L178.126 179.477Z" fill="white"/>
<path d="M228.445 167.63L205.454 165.262C204.255 165.138 203.183 166.01 203.06 167.209L200.692 190.2C200.568 191.399 201.44 192.471 202.639 192.595L225.63 194.963C226.829 195.086 227.901 194.214 228.025 193.015L230.393 170.024C230.516 168.825 229.644 167.753 228.445 167.63Z" fill="#292F36"/>
<g opacity="0.4">
<path d="M228.445 167.63L205.454 165.262C204.255 165.138 203.183 166.01 203.06 167.209L200.692 190.2C200.568 191.399 201.44 192.471 202.639 192.595L225.63 194.963C226.829 195.086 227.901 194.214 228.025 193.015L230.393 170.024C230.516 168.825 229.644 167.753 228.445 167.63Z" fill="black"/>
</g>
<path d="M224.232 167.189L201.241 164.822C200.042 164.698 198.97 165.57 198.847 166.769L196.479 189.76C196.355 190.959 197.227 192.031 198.426 192.155L221.417 194.522C222.616 194.646 223.688 193.774 223.812 192.575L226.179 169.584C226.303 168.385 225.431 167.313 224.232 167.189Z" fill="#263238"/>
<path d="M215.896 182.173C215.697 184.187 214.028 185.793 210.776 185.457C209.245 185.317 207.788 184.738 206.579 183.789L207.828 181.879C208.706 182.655 209.809 183.129 210.975 183.233C212.297 183.369 213.168 182.907 213.262 181.974C213.357 181.04 212.832 180.431 210.765 180.221L207.849 179.917L209.097 173.622L216.043 174.336L215.833 176.434L211.08 175.941L210.671 178.092L211.605 178.186C214.931 178.501 216.106 180.148 215.896 182.173Z" fill="white"/>
<path d="M267.972 171.699L244.98 169.331C243.781 169.208 242.709 170.08 242.586 171.278L240.218 194.27C240.095 195.469 240.967 196.541 242.165 196.664L265.157 199.032C266.356 199.155 267.428 198.284 267.551 197.085L269.919 174.093C270.042 172.894 269.171 171.822 267.972 171.699Z" fill="#292F36"/>
<g opacity="0.4">
<path d="M267.972 171.699L244.98 169.331C243.781 169.208 242.709 170.08 242.586 171.278L240.218 194.27C240.095 195.469 240.967 196.541 242.165 196.664L265.157 199.032C266.356 199.155 267.428 198.284 267.551 197.085L269.919 174.093C270.042 172.895 269.171 171.823 267.972 171.699Z" fill="black"/>
</g>
<path d="M263.748 171.259L240.757 168.891C239.558 168.767 238.486 169.639 238.362 170.838L235.995 193.83C235.871 195.028 236.743 196.1 237.942 196.224L260.933 198.592C262.132 198.715 263.204 197.843 263.327 196.644L265.695 173.653C265.819 172.454 264.947 171.382 263.748 171.259Z" fill="#263238"/>
<path d="M256.247 186.307C256.005 188.636 253.949 189.905 251.546 189.653C248.399 189.328 246.657 187.156 247.035 183.484C247.444 179.54 250.046 177.588 253.477 177.945C254.59 178.03 255.659 178.414 256.572 179.057L255.397 180.893C254.793 180.423 254.062 180.145 253.298 180.096C251.389 179.907 250.056 180.903 249.752 183.075C250.166 182.767 250.637 182.545 251.138 182.42C251.639 182.296 252.159 182.273 252.669 182.351C253.17 182.357 253.664 182.465 254.121 182.671C254.578 182.877 254.987 183.175 255.323 183.546C255.659 183.918 255.915 184.355 256.074 184.83C256.233 185.305 256.291 185.808 256.247 186.307ZM253.676 186.17C253.703 185.926 253.678 185.679 253.601 185.446C253.525 185.213 253.4 184.998 253.234 184.818C253.068 184.637 252.865 184.493 252.639 184.397C252.413 184.301 252.169 184.255 251.924 184.261C251.683 184.209 251.433 184.208 251.192 184.258C250.95 184.307 250.721 184.406 250.519 184.547C250.318 184.689 250.147 184.871 250.019 185.082C249.89 185.292 249.807 185.527 249.773 185.772C249.668 186.747 250.329 187.534 251.599 187.671C251.833 187.719 252.075 187.717 252.308 187.666C252.542 187.615 252.762 187.516 252.955 187.375C253.148 187.233 253.309 187.053 253.427 186.846C253.546 186.638 253.62 186.408 253.645 186.17H253.676Z" fill="white"/>
<path d="M307.477 175.767L284.486 173.4C283.287 173.276 282.215 174.148 282.091 175.347L279.724 198.338C279.6 199.537 280.472 200.609 281.671 200.732L304.662 203.1C305.861 203.224 306.933 202.352 307.056 201.153L309.424 178.162C309.548 176.963 308.676 175.891 307.477 175.767Z" fill="#292F36"/>
<g opacity="0.4">
<path d="M307.477 175.767L284.486 173.4C283.287 173.276 282.215 174.148 282.091 175.347L279.724 198.338C279.6 199.537 280.472 200.609 281.671 200.732L304.662 203.1C305.861 203.224 306.933 202.352 307.056 201.153L309.424 178.162C309.548 176.963 308.676 175.891 307.477 175.767Z" fill="black"/>
</g>
<path d="M303.264 175.327L280.273 172.959C279.074 172.836 278.002 173.708 277.878 174.906L275.51 197.898C275.387 199.097 276.259 200.169 277.458 200.292L300.449 202.66C301.648 202.783 302.72 201.912 302.843 200.713L305.211 177.721C305.335 176.523 304.463 175.451 303.264 175.327Z" fill="#263238"/>
<path d="M294.845 183.606L285.206 191.207L285.856 192.03L295.494 184.429L294.845 183.606Z" fill="white"/>
<path d="M286.896 182.769L286.082 183.431L293.827 192.954L294.641 192.292L286.896 182.769Z" fill="white"/>
<path d="M186.235 203.426L163.244 201.058C162.045 200.935 160.973 201.807 160.849 203.005L158.481 225.997C158.358 227.196 159.23 228.268 160.429 228.391L183.42 230.759C184.619 230.882 185.691 230.011 185.814 228.812L188.182 205.82C188.306 204.622 187.434 203.55 186.235 203.426Z" fill="#292F36"/>
<g opacity="0.4">
<path d="M186.235 203.426L163.244 201.058C162.045 200.935 160.973 201.807 160.849 203.006L158.481 225.997C158.358 227.196 159.23 228.268 160.429 228.391L183.42 230.759C184.619 230.883 185.691 230.011 185.814 228.812L188.182 205.82C188.306 204.622 187.434 203.55 186.235 203.426Z" fill="black"/>
</g>
<path d="M182.021 202.996L159.029 200.628C157.83 200.505 156.758 201.377 156.635 202.576L154.267 225.567C154.144 226.766 155.015 227.838 156.214 227.961L179.206 230.329C180.404 230.453 181.476 229.581 181.6 228.382L183.968 205.391C184.091 204.192 183.219 203.12 182.021 202.996Z" fill="#263238"/>
<path d="M173.447 210.039L173.269 211.749L168.023 221.002L165.159 220.698L170.195 211.875L166.418 211.486L166.229 213.343L163.879 213.102L164.298 209.105L173.447 210.039Z" fill="white"/>
<path d="M224.356 207.352L201.364 204.984C200.165 204.861 199.094 205.733 198.97 206.932L196.602 229.923C196.479 231.122 197.351 232.194 198.549 232.317L221.541 234.685C222.74 234.809 223.812 233.937 223.935 232.738L226.303 209.746C226.426 208.548 225.555 207.476 224.356 207.352Z" fill="#292F36"/>
<g opacity="0.4">
<path d="M224.356 207.352L201.364 204.984C200.165 204.861 199.094 205.733 198.97 206.931L196.602 229.923C196.479 231.122 197.351 232.194 198.549 232.317L221.541 234.685C222.74 234.808 223.812 233.937 223.935 232.738L226.303 209.746C226.426 208.548 225.555 207.476 224.356 207.352Z" fill="black"/>
</g>
<path d="M220.132 206.912L197.14 204.544C195.942 204.421 194.87 205.292 194.746 206.491L192.378 229.483C192.255 230.682 193.127 231.754 194.326 231.877L217.317 234.245C218.516 234.368 219.588 233.496 219.711 232.298L222.079 209.306C222.203 208.107 221.331 207.035 220.132 206.912Z" fill="#263238"/>
<path d="M212.707 222.303C212.486 224.402 210.43 225.608 207.534 225.304C204.639 225 202.886 223.457 203.107 221.317C203.156 220.748 203.373 220.206 203.729 219.76C204.086 219.314 204.567 218.983 205.111 218.81C204.729 218.527 204.431 218.147 204.246 217.71C204.062 217.272 203.998 216.793 204.061 216.323C204.271 214.319 206.16 213.259 208.772 213.522C211.385 213.784 213.053 215.232 212.853 217.236C212.811 217.711 212.641 218.167 212.363 218.554C212.084 218.942 211.706 219.247 211.269 219.439C211.764 219.722 212.165 220.145 212.42 220.654C212.676 221.164 212.775 221.737 212.707 222.303ZM210.042 221.947C210.147 220.897 209.381 220.236 208.069 220.1C206.758 219.964 205.887 220.499 205.782 221.506C205.677 222.513 206.422 223.237 207.734 223.373C209.045 223.51 209.947 222.912 210.084 221.905L210.042 221.947ZM206.642 216.701C206.548 217.561 207.177 218.17 208.248 218.285C209.318 218.4 210.094 217.928 210.189 217.068C210.283 216.208 209.622 215.557 208.541 215.452C207.461 215.347 206.726 215.777 206.642 216.669V216.701Z" fill="white"/>
<path d="M263.872 211.422L240.88 209.054C239.681 208.93 238.609 209.802 238.486 211.001L236.118 233.992C235.995 235.191 236.866 236.263 238.065 236.387L261.057 238.754C262.256 238.878 263.328 238.006 263.451 236.807L265.819 213.816C265.942 212.617 265.071 211.545 263.872 211.422Z" fill="#292F36"/>
<g opacity="0.4">
<path d="M263.872 211.422L240.88 209.054C239.681 208.93 238.609 209.802 238.486 211.001L236.118 233.992C235.995 235.191 236.866 236.263 238.065 236.387L261.057 238.754C262.256 238.878 263.328 238.006 263.451 236.807L265.819 213.816C265.942 212.617 265.071 211.545 263.872 211.422Z" fill="black"/>
</g>
<path d="M258.889 209.142L236.007 206.831C234.814 206.711 233.749 207.58 233.628 208.773L231.317 231.655C231.197 232.848 232.066 233.913 233.259 234.034L256.141 236.345C257.334 236.466 258.399 235.596 258.52 234.403L260.831 211.521C260.952 210.328 260.082 209.263 258.889 209.142Z" fill="#263238"/>
<path d="M252.05 223.646C251.641 227.591 249.06 229.542 245.608 229.186C244.503 229.104 243.44 228.724 242.534 228.084L243.709 226.248C244.311 226.72 245.044 226.994 245.808 227.035C247.696 227.224 249.049 226.227 249.354 224.045C248.937 224.355 248.463 224.58 247.958 224.706C247.454 224.832 246.93 224.857 246.416 224.779C245.917 224.77 245.426 224.658 244.972 224.45C244.519 224.243 244.113 223.944 243.779 223.574C243.446 223.203 243.192 222.767 243.034 222.294C242.876 221.821 242.816 221.321 242.859 220.824C243.101 218.495 245.157 217.225 247.57 217.477C250.707 217.802 252.438 219.974 252.05 223.646ZM249.312 221.359C249.406 220.383 248.745 219.596 247.497 219.46C247.261 219.414 247.018 219.419 246.784 219.472C246.549 219.526 246.329 219.629 246.137 219.773C245.945 219.917 245.785 220.1 245.667 220.31C245.55 220.52 245.478 220.752 245.456 220.991C245.434 221.23 245.462 221.472 245.539 221.699C245.616 221.927 245.74 222.136 245.902 222.313C246.065 222.49 246.263 222.631 246.483 222.727C246.704 222.823 246.942 222.872 247.182 222.87C247.423 222.921 247.671 222.922 247.912 222.873C248.153 222.823 248.382 222.724 248.583 222.583C248.784 222.441 248.953 222.259 249.08 222.048C249.208 221.838 249.29 221.603 249.322 221.359H249.312Z" fill="white"/>
<path d="M303.387 215.49L280.396 213.122C279.197 212.999 278.125 213.87 278.002 215.069L275.634 238.061C275.51 239.259 276.382 240.331 277.581 240.455L300.573 242.823C301.771 242.946 302.843 242.074 302.967 240.876L305.335 217.884C305.458 216.685 304.586 215.613 303.387 215.49Z" fill="#292F36"/>
<g opacity="0.4">
<path d="M303.387 215.49L280.396 213.122C279.197 212.998 278.125 213.87 278.002 215.069L275.634 238.061C275.51 239.259 276.382 240.331 277.581 240.455L300.573 242.823C301.771 242.946 302.843 242.074 302.967 240.875L305.335 217.884C305.458 216.685 304.586 215.613 303.387 215.49Z" fill="black"/>
</g>
<path d="M299.174 215.05L276.183 212.682C274.984 212.558 273.912 213.43 273.789 214.629L271.421 237.62C271.297 238.819 272.169 239.891 273.368 240.015L296.359 242.382C297.558 242.506 298.63 241.634 298.754 240.435L301.122 217.444C301.245 216.245 300.373 215.173 299.174 215.05Z" fill="#263238"/>
<path d="M280.221 226.407L280.114 227.45L292.324 228.708L292.432 227.664L280.221 226.407Z" fill="white"/>
<path d="M259.747 251.495L236.755 249.127C235.556 249.003 234.484 249.875 234.361 251.074L231.993 274.065C231.87 275.264 232.741 276.336 233.94 276.46L256.932 278.828C258.131 278.951 259.203 278.079 259.326 276.88L261.694 253.889C261.817 252.69 260.946 251.618 259.747 251.495Z" fill="#292F36"/>
<g opacity="0.4">
<path d="M259.747 251.495L236.755 249.127C235.556 249.003 234.484 249.875 234.361 251.074L231.993 274.065C231.87 275.264 232.741 276.336 233.94 276.46L256.932 278.828C258.131 278.951 259.203 278.079 259.326 276.88L261.694 253.889C261.817 252.69 260.946 251.618 259.747 251.495Z" fill="black"/>
</g>
<path d="M255.523 251.054L232.532 248.687C231.333 248.563 230.261 249.435 230.137 250.634L227.769 273.625C227.646 274.824 228.518 275.896 229.717 276.019L252.708 278.387C253.907 278.511 254.979 277.639 255.102 276.44L257.47 253.449C257.594 252.25 256.722 251.178 255.523 251.054Z" fill="#263238"/>
<path d="M299.262 255.564L276.271 253.196C275.072 253.073 274 253.944 273.877 255.143L271.509 278.135C271.385 279.334 272.257 280.406 273.456 280.529L296.448 282.897C297.646 283.02 298.718 282.149 298.842 280.95L301.21 257.958C301.333 256.759 300.461 255.687 299.262 255.564Z" fill="#292F36"/>
<g opacity="0.4">
<path d="M299.262 255.564L276.271 253.196C275.072 253.073 274 253.945 273.877 255.143L271.509 278.135C271.385 279.334 272.257 280.406 273.456 280.529L296.448 282.897C297.646 283.02 298.718 282.149 298.842 280.95L301.21 257.958C301.333 256.759 300.461 255.687 299.262 255.564Z" fill="black"/>
</g>
<path d="M295.049 255.124L272.058 252.756C270.859 252.632 269.787 253.504 269.664 254.703L267.296 277.694C267.172 278.893 268.044 279.965 269.243 280.089L292.234 282.457C293.433 282.58 294.505 281.708 294.629 280.509L296.997 257.518C297.12 256.319 296.248 255.247 295.049 255.124Z" fill="#455A64"/>
<path d="M276.254 264.989L276.146 266.033L288.357 267.291L288.464 266.247L276.254 264.989Z" fill="white"/>
<path d="M275.782 269.628L275.675 270.672L287.885 271.93L287.993 270.886L275.782 269.628Z" fill="white"/>
<path d="M214.71 246.494L153.939 240.236C152.498 240.087 151.21 241.135 151.061 242.576L148.712 265.39C148.563 266.831 149.611 268.119 151.052 268.268L211.823 274.526C213.264 274.675 214.552 273.627 214.701 272.186L217.05 249.372C217.199 247.931 216.151 246.643 214.71 246.494Z" fill="#263238"/>
<path d="M180.414 256.59C180.802 252.823 183.11 250.914 185.911 251.197C188.712 251.48 190.569 253.831 190.181 257.597C189.793 261.363 187.506 263.273 184.694 262.979C181.882 262.685 180.025 260.346 180.414 256.59ZM187.527 257.324C187.8 254.733 186.992 253.568 185.68 253.432C184.369 253.295 183.351 254.271 183.089 256.863C182.827 259.454 183.624 260.619 184.925 260.755C186.226 260.891 187.265 259.905 187.527 257.324Z" fill="white"/>
<path d="M242.811 257.376L241.373 269.566L242.414 269.689L243.853 257.499L242.811 257.376Z" fill="white"/>
<path d="M236.574 262.399L236.467 263.443L248.677 264.7L248.785 263.657L236.574 262.399Z" fill="white"/>
<path d="M230.857 70.427L229.105 87.4548L228.297 87.3709L230.018 71.0984L225.737 70.6578L225.811 69.9024L230.857 70.427Z" fill="#263238"/>
<path d="M244.853 88.3152L244.769 89.0706L233.228 87.885L233.291 87.2975L241.349 80.6983C243.657 78.8203 244.213 77.6242 244.36 76.2393C244.59 73.9732 243.164 72.3574 240.163 72.0427C239.22 71.873 238.25 71.9209 237.329 72.1828C236.407 72.4446 235.557 72.9134 234.844 73.5535L234.34 72.966C235.143 72.2661 236.091 71.7527 237.116 71.4625C238.141 71.1722 239.217 71.1124 240.268 71.2873C243.52 71.623 245.419 73.5115 245.136 76.2603C244.968 77.876 244.318 79.2294 241.842 81.2333L234.498 87.245L244.853 88.3152Z" fill="#263238"/>
<path d="M258.345 85.6922C258.051 88.525 255.858 90.3085 252.113 89.8889C251.009 89.8296 249.931 89.5338 248.952 89.0216C247.973 88.5093 247.115 87.7925 246.437 86.9198L246.941 86.3847C247.565 87.1944 248.357 87.8593 249.262 88.3338C250.168 88.8083 251.165 89.0811 252.186 89.1335C255.439 89.4692 257.306 88.0843 257.569 85.5873C257.831 83.0903 256.331 81.3907 252.721 80.9815L251.777 80.8766L251.84 80.2996L257.852 73.9312L248.462 72.966L248.535 72.2106L259.027 73.2597L258.964 73.8367L252.921 80.2261C256.866 80.6668 258.639 82.849 258.345 85.6922Z" fill="#263238"/>
<path d="M275.132 87.224L271.428 86.8463L270.924 91.7669L270.117 91.683L270.62 86.7624L260.842 85.7132L260.905 85.1257L271.512 74.5712L272.456 74.6656L261.965 85.0942L270.683 85.9965L271.124 81.6635L271.932 81.7474L271.48 86.07L275.184 86.4581L275.132 87.224Z" fill="#263238"/>
<path d="M278.667 91.8193C278.618 92.1243 278.537 92.4232 278.426 92.7111L277.209 95.8586L276.579 95.7957L277.681 92.5118C277.469 92.477 277.28 92.3596 277.156 92.1855C277.031 92.0114 276.98 91.7948 277.015 91.5833C277.05 91.3718 277.167 91.1828 277.341 91.0579C277.515 90.9329 277.732 90.8823 277.943 90.9171C278.158 90.9434 278.353 91.0525 278.489 91.221C278.624 91.3896 278.688 91.6043 278.667 91.8193Z" fill="#263238"/>
<path d="M295.538 89.3328L291.845 88.9551L291.341 93.8652L290.533 93.7813L291.037 88.8712L281.259 87.822L281.321 87.2345L291.918 76.7114L292.862 76.8164L282.371 87.245L291.089 88.1368L291.53 83.8038L292.338 83.8877L291.918 88.2207L295.622 88.5984L295.538 89.3328Z" fill="#263238"/>
<path d="M308.19 90.7387C307.897 93.5085 305.756 95.4494 301.895 95.0508C300.797 94.9878 299.725 94.6902 298.751 94.178C297.778 93.6658 296.925 92.951 296.251 92.0816L296.776 91.5466C297.397 92.3594 298.188 93.0265 299.094 93.5013C300 93.9762 300.999 94.2472 302.021 94.2954C305.347 94.6416 307.162 93.0574 307.414 90.6443C307.687 88.0214 306.281 86.3008 301.413 85.7972L298.108 85.4615L299.787 77.5193L308.568 78.4321L308.495 79.1875L300.385 78.3482L298.989 84.79L301.612 85.0628C306.816 85.5978 308.495 87.7171 308.19 90.7387Z" fill="#263238"/>
<path d="M122.08 439.658L115.407 464.323L137.094 466.296L141.647 442.816L122.08 439.658Z" fill="#292F36"/>
<path d="M137.692 464.292C136.642 464.367 135.587 464.332 134.544 464.187C132.593 464.029 129.907 463.725 126.938 463.348L119.363 462.298C118.299 462.218 117.244 462.036 116.215 461.753C117.266 461.693 118.32 461.735 119.363 461.879C121.314 462.036 124 462.34 126.969 462.718L134.544 463.767C135.606 463.852 136.659 464.028 137.692 464.292Z" fill="#263238"/>
<g opacity="0.6">
<path d="M115.407 464.323L137.094 466.296L137.44 464.491L116.037 461.774L115.439 464.072" fill="white"/>
</g>
<path d="M126.151 463.222C127.369 456.887 128.91 450.619 130.767 444.442C130.233 447.624 129.533 450.776 128.669 453.884C127.992 457.038 127.151 460.155 126.151 463.222Z" fill="#263238"/>
<path d="M136.527 464.134C136.868 462.625 136.868 461.059 136.527 459.55C136.146 457.928 135.326 456.444 134.156 455.259C132.697 453.835 130.793 452.957 128.763 452.772C126.737 452.563 124.697 453.027 122.961 454.094C121.553 454.988 120.391 456.222 119.583 457.682C118.865 459.053 118.399 460.542 118.209 462.078C118.195 461.97 118.195 461.861 118.209 461.753C118.205 461.441 118.222 461.129 118.261 460.819C118.412 459.664 118.767 458.545 119.31 457.514C120.107 455.965 121.293 454.648 122.752 453.695C124.569 452.547 126.72 452.044 128.858 452.268C131.002 452.464 133.01 453.403 134.534 454.923C135.741 456.183 136.57 457.757 136.926 459.466C137.16 460.608 137.16 461.786 136.926 462.928C136.858 463.235 136.767 463.537 136.653 463.83C136.625 463.937 136.583 464.039 136.527 464.134Z" fill="#263238"/>
<path d="M211.521 436.846L210.23 456.266C210.23 456.266 229.556 462.676 229.671 466.285L191.902 466.558L192.667 436.216L211.521 436.846Z" fill="#292F36"/>
<g opacity="0.6">
<path d="M198.606 454.283C198.239 454.384 197.922 454.616 197.716 454.935C197.509 455.254 197.426 455.638 197.483 456.014C197.569 456.385 197.794 456.709 198.113 456.918C198.432 457.128 198.819 457.206 199.193 457.137C199.581 457.028 199.914 456.781 200.131 456.443C200.348 456.104 200.432 455.697 200.369 455.301C200.239 454.924 199.969 454.613 199.615 454.431C199.261 454.249 198.851 454.211 198.47 454.325" fill="white"/>
</g>
<g opacity="0.6">
<path d="M191.902 466.579L192.101 463.515L228.465 464.565C228.849 464.763 229.178 465.054 229.422 465.411C229.665 465.768 229.816 466.18 229.86 466.61L191.902 466.579Z" fill="white"/>
</g>
<path d="M210.85 456.098C210.85 456.287 209.916 456.339 208.982 456.906C208.048 457.472 207.555 458.228 207.387 458.154C207.22 458.081 207.524 457.021 208.657 456.35C209.79 455.678 210.892 455.93 210.85 456.098Z" fill="#263238"/>
<path d="M214.752 457.86C214.752 458.039 213.986 458.322 213.336 459.088C212.685 459.854 212.476 460.662 212.287 460.651C212.098 460.641 212.014 459.602 212.843 458.658C213.672 457.714 214.763 457.682 214.752 457.86Z" fill="#263238"/>
<path d="M216.861 462.666C216.693 462.666 216.462 461.763 216.966 460.777C217.47 459.791 218.351 459.403 218.424 459.56C218.498 459.717 217.942 460.242 217.543 461.06C217.144 461.879 217.05 462.655 216.861 462.666Z" fill="#263238"/>
<path d="M210.65 451.639C210.566 451.807 209.727 451.524 208.688 451.565C207.649 451.607 206.821 451.912 206.726 451.744C206.632 451.576 207.44 450.957 208.667 450.926C209.895 450.894 210.745 451.503 210.65 451.639Z" fill="#263238"/>
<g opacity="0.3">
<path d="M211.259 440.696L211.028 444.158L192.479 443.424L192.552 440.308L211.259 440.696Z" fill="black"/>
</g>
<path d="M210.839 447.715C210.215 447.863 209.563 447.841 208.951 447.652C208.272 447.509 207.613 447.283 206.989 446.981C206.624 446.805 206.273 446.602 205.94 446.372C205.729 446.252 205.541 446.095 205.383 445.911C205.265 445.776 205.196 445.605 205.186 445.427C205.177 445.248 205.228 445.071 205.331 444.924C205.429 444.801 205.553 444.701 205.695 444.632C205.836 444.563 205.992 444.526 206.149 444.526C206.389 444.53 206.626 444.573 206.852 444.652C207.254 444.76 207.644 444.908 208.017 445.092C208.647 445.397 209.225 445.801 209.727 446.288C210.577 447.128 210.86 447.82 210.776 447.852C210.692 447.883 210.283 447.327 209.412 446.624C208.906 446.22 208.349 445.885 207.755 445.627C207.416 445.475 207.065 445.352 206.705 445.26C206.307 445.145 205.971 445.124 205.856 445.26C205.74 445.396 205.856 445.354 205.856 445.47C205.977 445.602 206.114 445.719 206.265 445.816C206.594 446.04 206.919 446.239 207.24 446.414C207.817 446.721 208.422 446.974 209.045 447.17C209.654 447.314 210.253 447.496 210.839 447.715Z" fill="#263238"/>
<path d="M210.587 447.977C210.254 447.422 210.1 446.777 210.147 446.131C210.127 445.024 210.418 443.934 210.986 442.983C211.094 442.737 211.263 442.522 211.478 442.361C211.694 442.199 211.947 442.095 212.213 442.06C212.383 442.067 212.547 442.123 212.685 442.222C212.823 442.321 212.929 442.458 212.99 442.616C213.08 442.838 213.14 443.071 213.168 443.309C213.234 443.876 213.187 444.45 213.03 444.999C212.874 445.549 212.61 446.061 212.255 446.509C211.49 447.474 210.713 447.663 210.703 447.558C210.692 447.453 211.301 447.128 211.888 446.204C212.23 445.675 212.452 445.077 212.539 444.452C212.591 444.087 212.591 443.716 212.539 443.351C212.539 442.952 212.35 442.627 212.203 442.658C212.056 442.69 211.689 442.941 211.521 443.256C211.327 443.593 211.158 443.943 211.017 444.305C210.791 444.905 210.65 445.534 210.598 446.173C210.514 447.253 210.692 447.946 210.587 447.977Z" fill="#263238"/>
<path d="M129.624 134.321C129.624 134.321 125.521 156.668 122.28 170.192C119.72 180.683 113.11 200.386 125.081 206.104C137.052 211.822 153.104 188.73 153.104 188.73L159.934 136.125C155.181 137.017 149.788 142.536 144.05 150.646L145.099 130.712L129.624 134.321Z" fill="#455A64"/>
<path d="M294.363 167.338L288.068 170.338L282.266 161.242L285.655 154.223C285.98 153.573 286.326 152.849 286.704 152.01C287.124 151.027 287.375 149.981 287.449 148.915C287.595 147.601 287.563 146.274 287.354 144.97C287.04 143.795 288.278 142.871 289.117 143.522C289.956 144.172 290.9 147.404 290.281 151.275C289.662 155.147 294.153 151.044 295.821 149.576C297.489 148.107 302.85 143.826 303.7 143.994C304.928 144.235 304.896 145.641 303.197 147.058C301.497 148.474 296.702 153.122 297.489 153.982C298.472 154.093 299.396 154.507 300.133 155.167C300.87 155.827 301.384 156.7 301.602 157.665C302.022 159.564 302.368 162.197 301.298 163.068C299.08 164.639 296.764 166.065 294.363 167.338Z" fill="#FFBE9D"/>
<path d="M172.314 82.5448L172.146 137.216L195.584 138.371L196.266 125.078C196.266 125.078 204.596 126.735 206.758 118.993C208.132 114.051 207.807 75.8512 207.807 75.8512L172.314 82.5448Z" fill="#FFBE9D"/>
<path d="M213.074 81.2019C211.49 84.4647 203.967 90.4449 203.967 90.4449L200.568 99.5516C197.62 97.2435 193.654 97.3799 192.909 102.563C192.363 106.319 197.022 107.074 197.022 107.074C194.304 111.69 192.468 115.467 188.523 119.811C184.243 124.574 181.851 125.057 177.213 125.13H172.094C172.094 125.13 161.602 116.38 163.7 93.3511C165.799 70.3221 186.478 77.0472 191.419 71.3188C199.466 61.9183 218.351 70.3011 213.074 81.2019Z" fill="#263238"/>
<path d="M164.865 112.603H165.515C166.139 112.592 166.761 112.522 167.372 112.393C169.615 111.883 171.687 110.798 173.384 109.246C175.818 106.856 177.87 104.107 179.469 101.094C180.518 99.4467 181.504 97.6946 182.763 96.0055C184.031 94.2304 185.588 92.6806 187.369 91.4207C189.202 90.2342 191.225 89.3718 193.349 88.8712C195.385 88.3466 197.389 88.0214 199.277 87.6542C203.054 86.9512 206.443 85.9021 208.72 84.108C210.583 82.7449 211.932 80.7932 212.549 78.5685C212.698 77.9641 212.775 77.3444 212.78 76.7219C212.78 76.2918 212.78 76.061 212.78 76.061C212.78 76.061 212.78 76.2918 212.853 76.7219C212.867 77.3498 212.804 77.977 212.664 78.5894C212.068 80.8493 210.721 82.8395 208.846 84.2339C206.516 86.0595 203.096 87.1401 199.319 87.843C197.42 88.2207 195.427 88.546 193.402 89.081C191.301 89.5802 189.301 90.4316 187.485 91.599C185.731 92.8527 184.193 94.3835 182.931 96.1314C181.683 97.81 180.644 99.5516 179.647 101.199C178.029 104.222 175.951 106.975 173.489 109.361C171.77 110.929 169.667 112.015 167.393 112.509C166.775 112.63 166.146 112.69 165.515 112.687C165.085 112.635 164.865 112.603 164.865 112.603Z" fill="#455A64"/>
<path d="M163.658 93.8757C163.658 93.8757 164.026 93.7288 164.708 93.498C165.751 93.1307 166.831 92.874 167.929 92.7321C169.675 92.4659 171.46 92.8384 172.954 93.7813C173.416 94.0883 173.812 94.4837 174.12 94.9447C174.428 95.4057 174.641 95.9231 174.748 96.4671C174.873 97.0811 174.843 97.7166 174.66 98.3159C174.476 98.9151 174.146 99.4589 173.699 99.8979C173.189 100.346 172.541 100.605 171.863 100.632C171.158 100.643 170.465 100.458 169.859 100.097C168.574 99.335 167.618 98.124 167.173 96.6979C166.668 95.1952 166.599 93.5801 166.974 92.0397C167.36 90.412 168.244 88.9451 169.502 87.843C170.819 86.6626 172.475 85.9282 174.234 85.7447C176.056 85.6309 177.883 85.8659 179.616 86.4372C181.399 87.0096 183.223 87.448 185.072 87.7486C186.98 88.0005 188.913 88.0005 190.821 87.7486C192.731 87.5213 194.596 87.0048 196.35 86.2168C197.208 85.871 197.983 85.3457 198.622 84.6762C199.26 84.0067 199.749 83.2085 200.054 82.3349C200.304 81.4796 200.322 80.5731 200.106 79.7085C199.891 78.8438 199.449 78.0521 198.826 77.4144C198.193 76.8423 197.405 76.4704 196.562 76.3453C195.718 76.2202 194.856 76.3476 194.084 76.7115C193.333 77.0413 192.718 77.6191 192.342 78.3481C191.985 79.0649 191.853 79.8735 191.965 80.6668C192.072 81.4262 192.34 82.154 192.75 82.8017C193.161 83.4494 193.705 84.0021 194.346 84.4228C195.58 85.18 197.001 85.5795 198.449 85.5769C199.784 85.6008 201.113 85.4023 202.383 84.9893C204.583 84.2971 206.581 83.08 208.206 81.4432C209.442 80.2264 210.46 78.807 211.217 77.2465C211.694 76.2393 212.064 75.1843 212.318 74.099C212.455 73.3646 212.549 72.9764 212.549 72.9764L212.36 74.1095C212.128 75.1941 211.776 76.2497 211.311 77.257C210.571 78.8462 209.555 80.2918 208.311 81.5271C206.682 83.1891 204.673 84.4281 202.456 85.1362C201.169 85.552 199.823 85.7574 198.47 85.7447C196.99 85.754 195.536 85.3508 194.273 84.5802C193.607 84.1475 193.041 83.5771 192.614 82.9075C192.187 82.2379 191.908 81.4846 191.797 80.6983C191.673 79.8663 191.809 79.0164 192.185 78.2642C192.583 77.4958 193.231 76.8854 194.021 76.5331C194.83 76.1497 195.734 76.0148 196.619 76.1456C197.504 76.2763 198.331 76.6668 198.994 77.2675C199.643 77.9306 200.104 78.7539 200.33 79.6533C200.557 80.5527 200.541 81.4961 200.285 82.3874C199.97 83.2911 199.466 84.1176 198.808 84.8121C198.15 85.5066 197.351 86.0534 196.466 86.4162C194.69 87.2099 192.805 87.7333 190.874 87.9689C188.944 88.2155 186.991 88.2155 185.061 87.9689C183.206 87.6657 181.376 87.2274 179.585 86.6575C177.874 86.0958 176.074 85.8575 174.276 85.9545C173.056 86.0845 171.881 86.4862 170.837 87.1302C169.793 87.7742 168.907 88.6441 168.244 89.6759C167.58 90.7076 167.157 91.875 167.004 93.092C166.852 94.3091 166.974 95.5448 167.362 96.7084C167.794 98.0925 168.72 99.269 169.964 100.013C170.541 100.359 171.201 100.54 171.873 100.538C172.516 100.514 173.131 100.269 173.615 99.8454C174.04 99.4211 174.353 98.8982 174.527 98.3235C174.701 97.7487 174.73 97.1398 174.612 96.5511C174.401 95.4919 173.783 94.5577 172.891 93.9491C171.42 93.0158 169.662 92.6433 167.939 92.9C166.847 93.0315 165.771 93.2741 164.729 93.6239L163.658 93.8757Z" fill="#455A64"/>
<path d="M148.194 242.709L116.971 447.799L142.906 451.083L179.49 279.073L188.712 452.247L216.819 451.754L212.161 243.192L148.194 242.709Z" fill="#263238"/>
<path d="M188.209 452.772V452.268L179.207 283.06L143.315 451.67L116.373 448.25L147.743 242.237L212.675 242.72L217.354 452.321L188.209 452.772ZM179.815 275.076L189.258 451.712L216.337 451.24L211.699 243.717L148.645 243.286L117.569 447.337L142.486 450.485L179.815 275.076Z" fill="#263238"/>
<path d="M208.468 451.419C208.31 451.419 208.195 410.334 208.195 359.659C208.195 308.985 208.31 267.879 208.468 267.879C208.625 267.879 208.741 308.964 208.741 359.659C208.741 410.355 208.615 451.419 208.468 451.419Z" fill="#455A64"/>
<path d="M137.198 450.674C137.206 450.525 137.227 450.378 137.261 450.233C137.261 449.908 137.398 449.478 137.503 448.932C137.723 447.768 138.048 446.089 138.457 443.949C139.339 439.595 140.556 433.352 142.14 425.641C145.288 410.187 149.746 388.868 154.866 365.367C159.986 341.865 164.802 320.609 168.369 305.26C170.163 297.601 171.621 291.401 172.639 287.078C173.153 284.98 173.562 283.301 173.835 282.147C173.972 281.602 174.087 281.182 174.16 280.867C174.196 280.721 174.242 280.577 174.297 280.437C174.297 280.437 174.297 280.584 174.213 280.878C174.129 281.172 174.066 281.623 173.951 282.168C173.688 283.333 173.321 285.001 172.849 287.131C171.873 291.453 170.478 297.622 168.747 305.344C165.274 320.725 160.521 341.981 155.401 365.482C150.282 388.983 145.76 410.292 142.518 425.714C140.892 433.415 139.58 439.647 138.667 443.991C138.216 446.089 137.859 447.789 137.618 448.953L137.324 450.244C137.297 450.391 137.255 450.535 137.198 450.674Z" fill="#455A64"/>
<path d="M188.712 278.884C188.325 278.988 187.927 279.041 187.527 279.042L184.285 279.273C181.546 279.451 177.759 279.64 173.604 280.049C169.45 280.458 165.704 281.025 162.987 281.381L159.766 281.791C159.372 281.866 158.97 281.891 158.57 281.864C158.946 281.726 159.337 281.631 159.734 281.581C160.479 281.423 161.57 281.224 162.882 280.993C165.589 280.542 169.334 279.944 173.51 279.503C177.686 279.063 181.483 278.968 184.222 278.884C185.596 278.884 186.708 278.832 187.474 278.832C187.888 278.804 188.303 278.822 188.712 278.884Z" fill="#455A64"/>
<path d="M212.706 265.571C212.451 265.683 212.177 265.751 211.899 265.77C211.148 265.879 210.389 265.914 209.632 265.875C207.114 265.74 204.687 264.884 202.64 263.409C200.594 261.934 199.015 259.902 198.092 257.555C197.813 256.85 197.605 256.119 197.473 255.373C197.378 254.848 197.368 254.554 197.41 254.544C197.452 254.533 197.682 255.698 198.459 257.398C199.464 259.617 201.025 261.539 202.991 262.979C204.977 264.385 207.295 265.249 209.716 265.487C211.521 265.675 212.685 265.466 212.706 265.571Z" fill="#455A64"/>
<path d="M142.854 246.738L214.7 246.507L210.766 199.096C210.335 188.248 210.398 186.947 210.126 176.938C210.126 176.938 220.323 189.265 228.349 197.921C230.714 200.464 233.828 202.188 237.239 202.843C240.649 203.497 244.18 203.048 247.318 201.561L289.285 172.279L281.426 152.167L243.29 175.511C241.537 174.462 226.692 153.237 216.431 142.903C209.862 136.288 201 132.453 191.681 132.191C183.948 132.01 176.21 132.322 168.516 133.125C162.911 133.725 157.691 136.259 153.752 140.291C149.813 144.324 147.403 149.603 146.935 155.22C146.19 164.085 146.788 174.378 146.788 191.867L142.854 246.738Z" fill="#455A64"/>
<path d="M146.232 160.015C146.232 160.015 146.232 160.214 146.232 160.571C146.232 160.927 146.232 161.525 146.232 162.155C146.232 163.54 146.232 165.533 146.232 167.999C146.232 172.93 146.452 179.728 146.672 187.251C146.893 194.773 146.924 201.593 146.735 206.513C146.651 208.979 146.536 210.972 146.421 212.347C146.421 212.987 146.326 213.511 146.295 213.931C146.263 214.351 146.232 214.477 146.232 214.477C146.232 214.477 146.232 214.288 146.232 213.931C146.232 213.574 146.284 212.976 146.316 212.347C146.41 210.972 146.494 208.979 146.557 206.513C146.704 201.582 146.641 194.773 146.431 187.251C146.221 179.728 146.043 172.93 146.053 167.999C146.053 165.533 146.053 163.54 146.127 162.155C146.127 161.515 146.127 161.001 146.179 160.571C146.232 160.141 146.232 160.015 146.232 160.015Z" fill="#263238"/>
<path d="M241.716 182.299C241.728 181.966 241.777 181.635 241.863 181.313C241.989 180.704 242.167 179.865 242.387 178.952C242.608 178.039 242.807 177.2 242.964 176.612C243.026 176.283 243.128 175.962 243.269 175.658C243.256 175.991 243.203 176.323 243.111 176.644C242.996 177.252 242.807 178.081 242.597 179.004C242.387 179.928 242.177 180.746 242.02 181.344C241.954 181.672 241.852 181.993 241.716 182.299Z" fill="#263238"/>
<path d="M245.545 182.886C245.144 181.648 244.818 180.387 244.57 179.109C244.246 177.847 243.991 176.569 243.804 175.28C244.199 176.52 244.525 177.781 244.779 179.057C245.103 180.319 245.358 181.597 245.545 182.886Z" fill="#263238"/>
<path d="M211.899 178.711L211.511 178.354L210.409 177.305C209.465 176.382 208.101 175.028 206.464 173.297C204.545 171.284 202.758 169.15 201.113 166.908C199.079 164.162 197.437 161.147 196.235 157.948C195.019 154.742 194.473 151.322 194.63 147.897C194.682 145.1 195.296 142.342 196.434 139.787C197.249 138.078 198.462 136.588 199.97 135.443C200.374 135.136 200.798 134.856 201.239 134.604L201.711 134.342C201.711 134.342 201.061 134.698 200.022 135.506C198.55 136.666 197.368 138.154 196.57 139.85C195.463 142.394 194.871 145.133 194.829 147.907C194.682 151.305 195.232 154.697 196.445 157.874C197.64 161.053 199.264 164.053 201.271 166.792C202.907 169.032 204.68 171.17 206.579 173.192C208.195 174.934 209.538 176.34 210.472 177.252L211.521 178.302C211.783 178.574 211.899 178.711 211.899 178.711Z" fill="#263238"/>
<path d="M165.201 159.207C164.252 158.441 163.421 157.54 162.735 156.531C161.916 155.634 161.231 154.624 160.7 153.531C161.647 154.295 162.477 155.192 163.165 156.196C163.988 157.094 164.674 158.108 165.201 159.207Z" fill="#FAFAFA"/>
<path d="M181.526 177.735C180.531 179.112 179.391 180.378 178.126 181.512C176.988 182.776 175.718 183.915 174.339 184.911C176.473 182.27 178.882 179.865 181.526 177.735Z" fill="#FAFAFA"/>
<path d="M197.326 204.331C197.179 204.331 196.602 202.757 195.532 200.942C194.462 199.127 193.349 197.795 193.433 197.721C194.516 198.473 195.389 199.488 195.972 200.67C196.722 201.758 197.187 203.017 197.326 204.331Z" fill="#FAFAFA"/>
<path d="M156.367 201.32C154.77 197.97 154.117 194.249 154.478 190.556C154.646 190.556 154.688 193.011 155.223 195.969C155.758 198.928 156.576 201.257 156.367 201.32Z" fill="#FAFAFA"/>
<path d="M178.116 213.029C176.809 210.213 176.526 207.029 177.318 204.027C177.476 204.027 177.245 206.073 177.476 208.549C177.706 211.025 178.273 212.976 178.116 213.029Z" fill="#FAFAFA"/>
<path d="M169.513 230.036C167.782 229.281 166.13 228.357 164.582 227.276C162.934 226.352 161.378 225.274 159.934 224.055C161.668 224.81 163.323 225.735 164.875 226.815C166.52 227.738 168.073 228.817 169.513 230.036Z" fill="#FAFAFA"/>
<path d="M203.337 225.01C203.411 225.157 200.977 226.363 198.155 228.158C195.332 229.952 193.182 231.62 193.077 231.494C194.472 229.995 196.085 228.715 197.861 227.696C199.539 226.527 201.386 225.621 203.337 225.01Z" fill="#FAFAFA"/>
<path d="M160.773 244.241C159.003 244.158 157.246 243.898 155.527 243.465C153.759 243.204 152.022 242.761 150.344 242.143C152.115 242.226 153.873 242.49 155.59 242.93C157.358 243.19 159.094 243.629 160.773 244.241Z" fill="#FAFAFA"/>
<path d="M183.477 240.548C181.475 238.607 180.117 236.099 179.584 233.361C179.731 233.361 180.382 235.019 181.462 236.991C182.543 238.964 183.603 240.443 183.477 240.548Z" fill="#FAFAFA"/>
<path d="M209.035 242.321C208.641 243.209 208.086 244.017 207.398 244.703C206.349 245.92 205.467 246.801 205.3 246.738C205.685 245.839 206.241 245.023 206.936 244.336C207.985 243.14 208.877 242.237 209.035 242.321Z" fill="#FAFAFA"/>
<path d="M162.315 170.202C162.399 170.328 161.466 171.104 160.217 171.923C159.508 172.503 158.692 172.938 157.815 173.203C157.731 173.077 158.675 172.3 159.913 171.472C160.621 170.892 161.438 170.46 162.315 170.202Z" fill="#FAFAFA"/>
<path d="M180.025 150.425C179.184 148.706 178.55 146.892 178.137 145.022C177.569 143.199 177.217 141.315 177.088 139.409C177.747 141.195 178.28 143.025 178.682 144.886C179.261 146.698 179.709 148.549 180.025 150.425Z" fill="#FAFAFA"/>
<path d="M197.032 168.429C196.959 168.576 195.427 167.988 193.465 167.621C191.503 167.254 189.856 167.222 189.856 167.055C192.336 166.623 194.888 167.111 197.032 168.429Z" fill="#FAFAFA"/>
<path d="M208.72 153.132C207.416 153.513 206.038 153.56 204.712 153.269C203.36 153.152 202.061 152.694 200.935 151.936C200.998 151.789 202.656 152.408 204.796 152.723C206.936 153.038 208.699 152.975 208.72 153.132Z" fill="#FAFAFA"/>
<path d="M220.67 170.192C220.472 168.261 220.572 166.311 220.963 164.411C221.188 162.481 221.711 160.598 222.516 158.829C222.663 158.829 222.002 161.368 221.467 164.495C220.932 167.621 220.837 170.202 220.67 170.192Z" fill="#FAFAFA"/>
<path d="M234.728 190.293C232.113 188.108 229.742 185.645 227.657 182.949C230.266 185.142 232.636 187.604 234.728 190.293Z" fill="#FAFAFA"/>
<path d="M246.416 188.73C245.332 191.102 243.919 193.309 242.219 195.287C242.685 194.061 243.321 192.906 244.108 191.857C244.727 190.711 245.504 189.659 246.416 188.73Z" fill="#FAFAFA"/>
<path d="M259.982 182.131C259.068 180.883 258.307 179.531 257.715 178.102C256.961 176.749 256.366 175.312 255.942 173.822C256.855 175.074 257.615 176.43 258.209 177.861C258.962 179.211 259.557 180.644 259.982 182.131Z" fill="#FAFAFA"/>
<path d="M278.447 174.493C275.21 174.291 272.007 173.72 268.899 172.793C270.525 172.81 272.144 173.007 273.726 173.381C275.336 173.572 276.92 173.945 278.447 174.493Z" fill="#FAFAFA"/>
<path d="M131.774 194.144C132.895 190.886 134.365 187.758 136.16 184.817C135.681 186.473 135.026 188.073 134.208 189.59C133.56 191.19 132.744 192.716 131.774 194.144Z" fill="#FAFAFA"/>
<path d="M141.563 176.875C140.39 175.957 139.333 174.9 138.416 173.727C137.357 172.674 136.424 171.502 135.635 170.234C136.812 171.147 137.869 172.205 138.783 173.381C139.847 174.429 140.78 175.602 141.563 176.875Z" fill="#FAFAFA"/>
<path d="M140.745 204.604C140.839 204.719 140.115 205.485 139.129 206.314C138.143 207.143 137.251 207.709 137.146 207.594C137.041 207.479 137.786 206.713 138.772 205.894C139.759 205.076 140.65 204.468 140.745 204.604Z" fill="#FAFAFA"/>
<path d="M144.05 158.525C144.175 158.619 143.735 159.364 143.074 160.193C142.413 161.022 141.773 161.609 141.658 161.515C141.542 161.421 141.983 160.676 142.644 159.847C143.305 159.018 143.987 158.43 144.05 158.525Z" fill="#FAFAFA"/>
<g opacity="0.3">
<path d="M198.889 163.288C203.327 177.231 206.747 191.867 211.185 205.81L210.136 176.938C205.82 172.886 202.041 168.299 198.889 163.288Z" fill="black"/>
</g>
<path d="M126.697 181.533C126.733 181.418 126.779 181.305 126.833 181.197L127.253 180.221C127.63 179.382 128.186 178.186 128.9 176.707C130.327 173.748 132.383 169.709 134.859 165.344C137.335 160.98 139.738 157.14 141.542 154.402C142.444 153.027 143.189 151.926 143.714 151.181L144.322 150.32C144.469 150.121 144.543 150.016 144.553 150.027L144.364 150.341L143.787 151.223L141.689 154.486C139.916 157.245 137.492 161.095 135.069 165.449C132.645 169.803 130.515 173.843 129.068 176.77L127.357 180.263C127.179 180.62 127.022 180.935 126.896 181.208C126.841 181.323 126.774 181.432 126.697 181.533Z" fill="#263238"/>
<path d="M133.778 168.177C133.405 168.363 133.019 168.524 132.624 168.66C131.713 169.058 130.841 169.543 130.022 170.108C129.209 170.679 128.453 171.329 127.767 172.049C127.232 172.605 126.938 172.972 126.917 172.951C126.896 172.93 126.917 172.846 127.085 172.668C127.259 172.415 127.448 172.173 127.651 171.944C128.311 171.18 129.066 170.503 129.896 169.929C130.727 169.353 131.626 168.881 132.572 168.523C132.856 168.412 133.147 168.318 133.443 168.24C133.551 168.204 133.664 168.183 133.778 168.177Z" fill="#263238"/>
<path d="M134.764 146.659C133.866 148.377 132.812 150.01 131.617 151.537C130.551 153.167 129.332 154.692 127.976 156.091C128.879 154.378 129.932 152.749 131.124 151.223C132.192 149.591 133.411 148.063 134.764 146.659Z" fill="#FAFAFA"/>
<path d="M142.339 129.6C142.859 129.691 143.395 129.62 143.872 129.394C144.35 129.169 144.745 128.801 145.004 128.341C145.592 127.459 145.865 126.41 146.379 125.487C147.942 122.749 151.488 121.553 152.915 118.741C153.114 118.342 153.23 117.797 152.915 117.524C152.6 117.251 152.128 117.44 151.761 117.618L142.423 122.297" fill="#FFBE9D"/>
<path d="M142.402 122.297C142.691 122.051 143.012 121.846 143.357 121.689C143.987 121.332 144.92 120.839 146.074 120.231L150.124 118.132L151.31 117.534C151.75 117.22 152.295 117.089 152.831 117.167C152.995 117.23 153.137 117.34 153.238 117.484C153.339 117.628 153.394 117.799 153.398 117.975C153.402 118.266 153.338 118.553 153.209 118.814C152.981 119.276 152.699 119.709 152.369 120.105C151.056 121.432 149.654 122.67 148.173 123.808C147.579 124.327 147.067 124.932 146.651 125.602C146.274 126.242 146.032 126.903 145.739 127.501C145.553 128.007 145.258 128.465 144.876 128.844C144.493 129.223 144.032 129.513 143.525 129.694C143.34 129.767 143.142 129.798 142.943 129.784C142.745 129.769 142.553 129.71 142.381 129.61C142.736 129.623 143.091 129.577 143.431 129.474C143.874 129.272 144.273 128.981 144.601 128.621C144.929 128.26 145.18 127.836 145.34 127.375C145.592 126.707 145.88 126.052 146.2 125.413C146.623 124.687 147.154 124.029 147.774 123.462C149.244 122.318 150.645 121.088 151.971 119.779C152.263 119.417 152.52 119.027 152.737 118.615C152.925 118.227 152.925 117.817 152.737 117.765C152.548 117.713 152.065 117.891 151.687 118.09L150.502 118.678L146.389 120.671C145.214 121.227 144.291 121.72 143.588 121.962C143.212 122.134 142.812 122.247 142.402 122.297Z" fill="#EB996E"/>
<path d="M435.244 410.512H368.832V419.64H435.244V410.512Z" fill="#263238"/>
<path d="M435.349 419.745H368.717V410.397H435.349V419.745ZM368.947 419.545H435.118V410.648H368.947V419.545Z" fill="#263238"/>
<path d="M374.99 416.597L384.548 463.746H419.915L429.148 419.629L374.99 416.597Z" fill="#263238"/>
<path d="M374.99 459.287L380.089 466.296H423.073L429.148 459.287H374.99Z" fill="#455A64"/>
<path d="M399.541 417.971C399.404 417.971 399.236 396.128 399.163 369.186C399.09 342.243 399.163 320.389 399.268 320.389C399.373 320.389 399.562 342.233 399.635 369.186C399.709 396.138 399.667 417.971 399.541 417.971Z" fill="#263238"/>
<path d="M414.334 363.3C414.29 363.476 414.23 363.648 414.156 363.814L413.558 365.22C413.432 365.535 413.285 365.87 413.127 366.269L412.687 367.517C412.529 367.958 412.351 368.43 412.173 368.934C411.994 369.437 411.858 369.983 411.68 370.56C410.891 373.229 410.27 375.944 409.823 378.691C409.301 382.06 408.951 385.453 408.773 388.857C408.531 395.052 408.706 401.256 409.298 407.427C409.518 409.799 409.728 411.718 409.885 413.04C409.959 413.659 410.011 414.163 410.053 414.562C410.067 414.74 410.067 414.919 410.053 415.097C409.985 414.933 409.943 414.76 409.927 414.583C409.865 414.184 409.781 413.68 409.676 413.061C409.455 411.75 409.193 409.83 408.941 407.459C408.276 401.265 408.086 395.028 408.375 388.805C408.541 385.382 408.891 381.971 409.424 378.586C409.895 375.823 410.554 373.096 411.396 370.424C411.575 369.857 411.732 369.312 411.921 368.808L412.466 367.392C412.645 366.951 412.802 366.542 412.949 366.154C413.096 365.765 413.285 365.451 413.421 365.104L414.103 363.73C414.164 363.579 414.242 363.434 414.334 363.3Z" fill="#263238"/>
<path d="M412.634 345.632C412.579 345.877 412.508 346.119 412.424 346.356C412.246 346.859 412.015 347.531 411.732 348.381C411.575 348.832 411.407 349.315 411.228 349.85L410.693 351.612C410.305 352.882 409.854 354.309 409.455 355.935C409.235 356.732 409.015 357.582 408.784 358.453C408.553 359.323 408.375 360.268 408.165 361.222C407.703 363.121 407.367 365.188 406.937 367.339C406.203 371.683 405.563 376.477 405.112 381.534C404.661 386.591 404.514 391.438 404.451 395.845C404.388 400.251 404.451 404.238 404.671 407.532C404.734 409.201 404.839 410.68 404.923 412.023C405.007 413.366 405.08 414.478 405.164 415.412C405.248 416.345 405.29 417.017 405.332 417.51C405.357 417.758 405.357 418.007 405.332 418.255C405.272 418.014 405.233 417.768 405.217 417.52L404.965 415.422C404.849 414.499 404.734 413.324 404.64 412.044C404.545 410.764 404.398 409.222 404.314 407.553C404.094 404.228 404 400.209 403.989 395.834C403.979 391.459 404.199 386.57 404.619 381.503C405.038 376.435 405.731 371.609 406.486 367.266C406.927 365.104 407.273 363.069 407.756 361.128C407.986 360.173 408.196 359.25 408.406 358.369C408.616 357.487 408.889 356.648 409.109 355.84C409.529 354.225 410.001 352.787 410.42 351.528L410.987 349.776C411.186 349.252 411.375 348.727 411.533 348.318L412.309 346.324C412.404 346.087 412.512 345.856 412.634 345.632Z" fill="#263238"/>
<path d="M395.334 421.832V421.581C395.334 421.381 395.334 421.14 395.271 420.825C395.218 420.133 395.155 419.168 395.071 417.94C394.914 415.391 394.694 411.76 394.41 407.291C393.833 398.31 392.994 385.899 391.483 372.249C390.717 365.43 389.815 358.946 388.892 353.071C388.388 350.143 387.948 347.353 387.434 344.751C386.919 342.149 386.468 339.736 385.996 337.532C385.524 335.329 385.073 333.336 384.685 331.605C384.297 329.874 383.929 328.373 383.636 327.146C383.342 325.918 383.111 325.047 382.954 324.334C382.88 324.03 382.828 323.788 382.786 323.6C382.744 323.411 382.733 323.348 382.786 323.348C382.82 323.426 382.848 323.507 382.87 323.589C382.87 323.778 382.996 324.009 383.08 324.313C383.268 324.985 383.531 325.918 383.856 327.104C384.181 328.289 384.601 329.8 385.01 331.542C385.419 333.283 385.933 335.256 386.395 337.469C386.857 339.683 387.444 342.075 387.885 344.677C388.325 347.279 388.871 350.07 389.385 353.008C390.34 358.883 391.252 365.367 392.018 372.197C393.529 385.836 394.316 398.289 394.809 407.281C395.05 411.771 395.218 415.412 395.323 417.929C395.323 419.157 395.407 420.133 395.428 420.825C395.428 421.129 395.428 421.381 395.428 421.581C395.414 421.67 395.382 421.756 395.334 421.832Z" fill="#263238"/>
<path d="M398.995 330.891C398.712 327.796 395.585 325.457 392.469 325.425C390.913 325.495 389.394 325.917 388.025 326.66C386.656 327.404 385.474 328.449 384.569 329.716C382.781 332.271 381.489 335.14 380.761 338.172C378.492 345.436 377.696 353.08 378.421 360.656C379.313 368.189 382.366 375.606 387.769 380.926C388.65 381.796 389.794 382.657 391.001 382.405C391.649 382.21 392.235 381.848 392.7 381.356C397.99 376.509 402.183 370.588 404.998 363.989C407.814 357.39 409.187 350.266 409.025 343.093C408.941 340.229 408.563 337.249 406.979 334.868C405.395 332.486 401.733 329.947 398.995 330.902" fill="#292F36"/>
<path d="M375.788 306.1L371.413 314.031C371.308 314.21 371.171 314.419 370.962 314.44C370.752 314.461 370.563 314.241 370.437 314.052C366.576 308.128 362.729 302.204 358.896 296.28L361.561 294.769L375.788 306.1Z" fill="#292F36"/>
<g opacity="0.2">
<path d="M375.788 306.1L371.413 314.031C371.308 314.21 371.171 314.419 370.962 314.44C370.752 314.461 370.563 314.241 370.437 314.052C366.576 308.128 362.729 302.204 358.896 296.28L361.561 294.769L375.788 306.1Z" fill="black"/>
</g>
<path d="M399.268 320.389L359.788 297.087C359.353 296.903 359.007 296.557 358.823 296.122C358.666 295.535 359.106 294.979 359.526 294.538C362.24 291.721 365.53 289.522 369.171 288.092C372.812 286.661 376.719 286.033 380.624 286.25C384.528 286.533 388.303 287.761 391.626 289.828C394.949 291.895 397.719 294.739 399.698 298.116C403.507 304.925 403.633 313.926 399.268 320.389Z" fill="#292F36"/>
<path d="M365.475 289.659C365.642 289.611 365.815 289.586 365.989 289.586C366.335 289.586 366.839 289.512 367.479 289.523C369.317 289.498 371.154 289.642 372.966 289.953C378.979 290.971 384.576 293.684 389.101 297.772C393.627 301.861 396.891 307.155 398.513 313.035C399.003 314.802 399.333 316.611 399.499 318.438C399.519 318.822 399.519 319.207 399.499 319.592C399.472 319.9 399.368 320.196 399.195 320.452C399.316 319.795 399.338 319.123 399.258 318.459C399.029 316.655 398.657 314.873 398.145 313.129C396.161 306.483 392.123 300.636 386.61 296.427C381.096 292.218 374.392 289.864 367.458 289.701C366.188 289.67 365.475 289.701 365.475 289.659Z" fill="#263238"/>
<path d="M393.917 304.306C393.29 304.685 392.621 304.991 391.924 305.218C390.665 305.711 388.913 306.341 386.94 306.97C384.968 307.6 383.174 308.093 381.862 308.408C381.162 308.623 380.441 308.764 379.712 308.827C380.38 308.502 381.084 308.256 381.81 308.093L386.846 306.519L391.85 304.904C392.518 304.635 393.21 304.435 393.917 304.306Z" fill="#263238"/>
<path d="M387.706 287.603C388.056 289.045 388.212 290.527 388.168 292.009C388.282 293.489 388.201 294.978 387.927 296.437C387.73 294.973 387.653 293.496 387.696 292.02C387.583 290.55 387.586 289.073 387.706 287.603Z" fill="#263238"/>
<path d="M359.442 296.647C360.367 296.221 361.325 295.87 362.306 295.598C364.1 295.041 366.597 294.349 369.388 293.678C372.179 293.006 374.707 292.492 376.564 292.167C377.554 291.944 378.562 291.807 379.575 291.758C378.61 292.069 377.625 292.314 376.627 292.492C374.802 292.901 372.273 293.468 369.493 294.129C366.713 294.79 364.247 295.451 362.401 295.923C361.432 296.231 360.443 296.473 359.442 296.647Z" fill="#263238"/>
<path d="M382.607 324.177C379.219 321.596 375.62 321.092 371.371 321.26C367.109 321.534 362.935 322.602 359.064 324.407C352.402 327.324 346.149 331.615 342.173 337.7C338.196 343.785 336.801 351.843 339.781 358.463C340.015 359.157 340.497 359.74 341.134 360.1C341.871 360.317 342.662 360.258 343.358 359.932C350.933 357.466 358.561 354.969 365.517 351.098C372.472 347.227 378.82 341.855 382.555 334.826C383.514 333.165 384.124 331.327 384.349 329.422C384.45 328.474 384.346 327.516 384.046 326.611C383.745 325.706 383.255 324.876 382.607 324.177Z" fill="#292F36"/>
<path d="M382.681 323.379C382.503 323.463 382.321 323.536 382.135 323.6L380.551 324.145L379.397 324.523L378.054 325.047C377.099 325.436 375.956 325.824 374.812 326.39L372.955 327.24C372.315 327.534 371.675 327.901 370.993 328.289C369.619 328.961 368.234 329.821 366.797 330.702C360.444 334.626 354.797 339.592 350.094 345.391C349.045 346.755 347.996 348.014 347.156 349.294C346.726 349.923 346.285 350.511 345.908 351.119C345.53 351.728 345.173 352.294 344.859 352.85C344.145 353.899 343.61 354.948 343.107 355.893C342.865 356.344 342.624 356.764 342.414 357.162L341.89 358.211C341.585 358.82 341.344 359.323 341.155 359.712C341.069 359.89 340.971 360.061 340.861 360.226C340.908 360.034 340.975 359.848 341.061 359.67C341.236 359.271 341.456 358.757 341.722 358.127C341.879 357.792 342.036 357.414 342.215 357.015C342.393 356.617 342.634 356.187 342.876 355.725C343.358 354.812 343.872 353.742 344.565 352.64L345.614 350.878C345.981 350.269 346.422 349.671 346.852 349.031C347.681 347.73 348.709 346.45 349.758 345.076C352.131 342.168 354.727 339.449 357.522 336.945C360.358 334.486 363.385 332.259 366.576 330.283C368.066 329.412 369.472 328.562 370.867 327.901C371.549 327.555 372.2 327.198 372.85 326.904L374.728 326.086C375.924 325.53 377.047 325.163 378.012 324.806C378.505 324.628 378.956 324.449 379.376 324.313L380.541 323.967L382.156 323.505C382.326 323.445 382.502 323.403 382.681 323.379Z" fill="#263238"/>
<path d="M356.147 337.711C353.445 338.745 350.689 339.631 347.891 340.365C345.136 341.259 342.334 341.998 339.497 342.579C342.199 341.541 344.955 340.651 347.754 339.914C350.51 339.029 353.312 338.293 356.147 337.711Z" fill="#263238"/>
<path d="M355.812 355.966C355.669 355.117 355.609 354.256 355.633 353.396C355.581 351.801 355.581 349.608 355.633 347.174C355.686 344.74 355.833 342.547 355.969 340.963C355.991 340.101 356.1 339.243 356.294 338.403C356.365 339.262 356.365 340.125 356.294 340.984C356.231 342.726 356.168 344.845 356.095 347.185C356.022 349.524 355.99 351.654 355.938 353.396C355.966 354.255 355.924 355.114 355.812 355.966Z" fill="#263238"/>
<path d="M371.423 348.014C371.297 348.014 370.878 343.555 370.5 338.036C370.122 332.517 369.912 328.027 370.038 328.017C370.164 328.006 370.584 332.476 370.972 338.005C371.36 343.534 371.56 348.003 371.423 348.014Z" fill="#263238"/>
<path d="M351.993 327.586C352.87 327.479 353.755 327.451 354.637 327.502C356.273 327.502 358.519 327.565 361.005 327.649C363.492 327.733 365.747 327.828 367.384 327.922C368.268 327.921 369.151 328.009 370.017 328.184C369.14 328.284 368.255 328.309 367.374 328.258C365.737 328.258 363.481 328.205 360.995 328.121C358.508 328.038 356.252 327.933 354.626 327.838C353.743 327.834 352.861 327.75 351.993 327.586Z" fill="#263238"/>
<path d="M389.49 381.964C389.45 381.792 389.433 381.616 389.437 381.44C389.437 381.041 389.437 380.537 389.364 379.918C389.301 378.597 389.291 376.687 389.364 374.326C389.437 371.966 389.563 369.154 389.847 366.049C390.13 362.943 390.602 359.533 391.242 355.977C391.882 352.42 392.679 349.073 393.487 346.052C394.295 343.03 395.155 340.355 395.953 338.12C396.75 335.885 397.421 334.102 397.946 332.874L398.544 331.468C398.603 331.298 398.685 331.136 398.785 330.986C398.75 331.162 398.698 331.334 398.628 331.5L398.114 332.937C397.642 334.165 397.012 335.969 396.267 338.183C395.523 340.397 394.715 343.114 393.907 346.125C393.099 349.136 392.354 352.483 391.704 356.019C391.053 359.554 390.654 362.954 390.287 366.049C389.92 369.144 389.784 371.945 389.7 374.295C389.616 376.645 389.49 378.628 389.49 379.918C389.49 380.537 389.49 381.041 389.49 381.44C389.508 381.614 389.508 381.79 389.49 381.964Z" fill="#263238"/>
<path d="M391.588 356.113C391.136 356.752 390.608 357.333 390.014 357.844C388.965 358.893 387.549 360.226 385.891 361.684C384.233 363.142 382.744 364.391 381.548 365.272C380.96 365.787 380.316 366.234 379.628 366.605C380.144 366.018 380.717 365.484 381.338 365.01L385.534 361.327L389.731 357.603C390.305 357.052 390.926 356.554 391.588 356.113Z" fill="#263238"/>
<path d="M404.052 366.185C403.428 365.457 402.866 364.678 402.374 363.856L398.471 358.169C396.96 356.019 395.586 354.088 394.484 352.525C393.894 351.772 393.361 350.976 392.889 350.143C393.57 350.819 394.195 351.548 394.757 352.326C395.806 353.721 397.317 355.672 398.859 357.897C400.401 360.121 401.723 362.167 402.646 363.677C403.185 364.472 403.655 365.311 404.052 366.185Z" fill="#263238"/>
<path d="M397.505 334.563C397.568 334.679 393.424 337.47 388.231 340.858C383.037 344.247 378.788 346.818 378.704 346.702C378.62 346.587 382.786 343.796 387.968 340.407C393.151 337.018 397.432 334.416 397.505 334.563Z" fill="#263238"/>
<path d="M409.203 347.153C404.914 343.399 400.834 339.414 396.981 335.214C399.181 337.034 401.282 338.971 403.276 341.016C405.365 342.949 407.344 344.998 409.203 347.153Z" fill="#263238"/>
<path d="M412.152 346.901L415.708 346.608C418.238 346.402 420.694 345.651 422.905 344.404C423.986 343.77 425.107 343.209 426.263 342.726C430.669 340.953 435.59 341.267 440.322 341.026C448.088 340.635 455.698 338.69 462.7 335.308C463.107 335.121 463.448 334.813 463.676 334.427C464.4 333.095 463.046 331.909 461.871 331.185C455.87 327.482 449.764 323.736 442.986 321.9C436.209 320.064 428.445 320.379 422.633 324.376C415.813 329.066 413.337 338.708 412.141 346.901" fill="#292F36"/>
<path d="M463.749 333.986C463.541 333.912 463.341 333.817 463.151 333.703L461.462 332.822C459.993 332.056 457.884 330.912 455.167 329.674C452.066 328.154 448.836 326.911 445.515 325.96C441.453 324.787 437.199 324.43 432.998 324.911C428.793 325.381 424.821 327.086 421.584 329.811C419.055 332.176 417.034 335.032 415.645 338.204C414.677 340.328 413.815 342.499 413.064 344.709C412.792 345.454 412.582 346.052 412.424 346.503C412.363 346.718 412.279 346.925 412.173 347.122C412.21 346.902 412.262 346.684 412.33 346.471C412.477 346.01 412.655 345.422 412.886 344.646C413.569 342.405 414.389 340.208 415.341 338.068C416.712 334.84 418.742 331.935 421.3 329.538C424.587 326.731 428.64 324.973 432.935 324.491C437.195 323.982 441.513 324.339 445.63 325.541C448.972 326.513 452.214 327.799 455.314 329.381C457.968 330.702 460.056 331.878 461.494 332.706L463.141 333.661C463.353 333.75 463.557 333.859 463.749 333.986Z" fill="#263238"/>
<path d="M455.199 338.582C455.125 338.697 450.456 335.675 444.791 331.856C439.126 328.038 434.572 324.838 434.646 324.722C434.719 324.607 439.377 327.628 445.053 331.458C450.729 335.287 455.272 338.477 455.199 338.582Z" fill="#263238"/>
<path d="M450.226 324.481C449.13 324.853 447.984 325.058 446.826 325.089C445.682 325.262 444.519 325.262 443.375 325.089C444.504 324.885 445.648 324.77 446.795 324.743C447.93 324.564 449.077 324.476 450.226 324.481Z" fill="#263238"/>
<path d="M429.819 321.827C429.441 322.698 428.923 323.502 428.288 324.208C427.754 325.032 427.104 325.775 426.357 326.411C426.739 325.554 427.256 324.765 427.889 324.072C428.42 323.233 429.07 322.477 429.819 321.827Z" fill="#263238"/>
<path d="M433.995 341.33C433.207 341.002 432.455 340.594 431.75 340.113C430.407 339.295 428.603 338.099 426.641 336.693C424.679 335.287 422.99 333.944 421.751 332.969C421.06 332.474 420.414 331.92 419.821 331.311C420.563 331.705 421.266 332.168 421.919 332.696L426.892 336.305C428.823 337.711 430.606 338.949 431.907 339.83C432.643 340.273 433.341 340.775 433.995 341.33Z" fill="#263238"/>
<path d="M417.397 362.041C413.998 361.149 409.948 364.454 409.245 367.895C408.542 371.336 409.833 374.862 411.344 378.04C414.574 385.167 419.381 391.467 425.402 396.464C431.469 401.453 439.046 404.241 446.9 404.374C445.462 397.702 447.277 390.735 446.48 383.947C445.772 377.974 443.059 372.417 438.785 368.185C434.511 363.952 428.928 361.294 422.947 360.645C420.776 360.415 418.258 360.068 417.397 362.072" fill="#292F36"/>
<path d="M446.9 404.343C446.73 404.286 446.568 404.209 446.417 404.112C445.963 403.873 445.534 403.589 445.137 403.262C443.714 402.021 442.573 400.49 441.79 398.772C441.245 397.723 440.636 396.579 440.049 395.32L438.213 391.27C437.56 389.782 436.81 388.338 435.968 386.948C435.044 385.475 434.013 384.072 432.883 382.751C430.554 380.013 428.057 377.652 425.885 375.407C423.931 373.435 422.151 371.297 420.566 369.018C419.5 367.47 418.623 365.801 417.954 364.045C417.744 363.415 417.586 362.933 417.502 362.586C417.443 362.417 417.408 362.241 417.397 362.062C417.397 362.062 417.628 362.754 418.132 363.982C418.856 365.691 419.764 367.316 420.839 368.829C422.451 371.07 424.244 373.175 426.2 375.124C428.372 377.359 430.89 379.719 433.24 382.468C434.397 383.808 435.45 385.236 436.387 386.738C437.226 388.152 437.976 389.616 438.632 391.123L440.426 395.184C440.993 396.443 441.581 397.597 442.105 398.656C442.837 400.356 443.908 401.887 445.253 403.157C446.249 403.976 446.921 404.301 446.9 404.343Z" fill="#263238"/>
<path d="M429.358 398.793C429.386 398.022 429.492 397.256 429.673 396.506C429.945 395.11 430.376 393.19 430.963 391.092C431.551 388.994 432.191 387.137 432.694 385.846C432.926 385.116 433.235 384.412 433.617 383.748C433.485 384.507 433.281 385.251 433.009 385.972C432.589 387.326 432.012 389.204 431.425 391.281C430.837 393.358 430.376 395.268 429.998 396.642C429.857 397.379 429.643 398.099 429.358 398.793Z" fill="#263238"/>
<path d="M446.249 382.415C445.437 382.3 444.637 382.113 443.857 381.859C442.399 381.482 440.374 380.957 438.118 380.454C435.863 379.95 433.817 379.551 432.327 379.268C431.515 379.164 430.714 378.985 429.935 378.733C430.754 378.724 431.572 378.791 432.379 378.932C433.89 379.132 435.968 379.478 438.223 379.981C440.479 380.485 442.504 381.031 443.952 381.534C444.749 381.739 445.52 382.035 446.249 382.415Z" fill="#263238"/>
<path d="M416.705 387.168C416.745 386.277 416.868 385.392 417.072 384.524C417.377 382.898 417.849 380.674 418.489 378.229C419.129 375.785 419.8 373.603 420.325 372.05C420.574 371.19 420.901 370.354 421.3 369.553C421.157 370.433 420.939 371.3 420.65 372.144C420.199 373.728 419.601 375.911 418.94 378.345C418.279 380.779 417.786 382.982 417.398 384.587C417.246 385.467 417.014 386.331 416.705 387.168Z" fill="#263238"/>
<path d="M438.454 368.136C438.454 368.262 434.194 367.927 429.012 367.371C423.829 366.815 419.569 366.258 419.569 366.133C419.569 366.007 423.829 366.342 429.012 366.898C434.194 367.455 438.464 368.011 438.454 368.136Z" fill="#263238"/>
<path d="M435.349 419.598C435.349 419.724 420.43 419.828 402.038 419.828C383.646 419.828 368.717 419.724 368.717 419.598C368.717 419.472 383.636 419.356 402.038 419.356C420.44 419.356 435.349 419.461 435.349 419.598Z" fill="#455A64"/>
<path d="M424.972 438.787C424.972 438.923 414.921 439.028 402.52 439.028C390.119 439.028 380.079 438.923 380.079 438.787C380.079 438.65 390.13 438.556 402.52 438.556C414.911 438.556 424.972 438.661 424.972 438.787Z" fill="#455A64"/>
<path d="M424.574 441.578C424.574 441.703 414.701 441.808 402.541 441.808C390.382 441.808 380.509 441.703 380.509 441.578C380.509 441.452 390.382 441.336 402.541 441.336C414.701 441.336 424.574 441.399 424.574 441.578Z" fill="#455A64"/>
<path d="M425.361 436.531C425.361 436.657 414.963 436.762 402.143 436.762C389.322 436.762 378.925 436.657 378.925 436.531C378.925 436.405 389.322 436.29 402.143 436.29C414.963 436.29 425.361 436.395 425.361 436.531Z" fill="#455A64"/>
<path d="M420.965 32.2691C420.965 32.4265 413.925 32.5104 405.227 32.4684C396.53 32.4265 389.49 32.2586 389.49 32.1117C389.49 31.9648 396.53 31.8704 405.227 31.9124C413.925 31.9543 420.965 32.1222 420.965 32.2691Z" fill="#263238"/>
<path d="M405.343 47.912C405.196 47.912 405.007 40.8827 404.912 32.1747C404.818 23.4666 404.912 16.4373 405.028 16.4373C405.143 16.4373 405.374 23.4666 405.458 32.1747C405.542 40.8827 405.5 47.912 405.343 47.912Z" fill="#263238"/>
<path d="M437.499 267.081C434.206 265.707 430.984 264.167 427.847 262.465C424.613 260.923 421.461 259.214 418.405 257.345C418.467 257.219 422.79 259.286 428.057 261.972C433.324 264.658 437.573 266.955 437.499 267.081Z" fill="#263238"/>
<path d="M423.252 271.824C424.574 268.506 426.069 265.259 427.732 262.098C429.223 258.867 430.879 255.716 432.694 252.655C431.367 255.971 429.872 259.218 428.214 262.381C426.721 265.61 425.064 268.762 423.252 271.824Z" fill="#263238"/>
<path d="M60.8932 193.21C60.8932 193.357 55.9202 195.487 49.6777 197.973C43.4352 200.46 38.3153 202.369 38.2629 202.233C38.2104 202.096 43.2254 199.956 49.4784 197.47C55.7314 194.983 60.8303 193.074 60.8932 193.21Z" fill="#263238"/>
<path d="M49.3105 186.391C49.3105 186.391 49.1321 186.086 48.7544 185.604C48.2195 184.936 47.4838 184.457 46.6561 184.24C45.991 184.062 45.2896 184.073 44.6304 184.271C43.9711 184.469 43.3798 184.847 42.9226 185.361C42.4654 185.876 42.1602 186.508 42.041 187.186C41.9219 187.864 41.9935 188.561 42.2479 189.201C42.5023 189.841 42.9295 190.397 43.4817 190.808C44.034 191.219 44.6896 191.468 45.3753 191.528C46.0611 191.588 46.75 191.456 47.3652 191.148C47.9804 190.839 48.4977 190.365 48.8593 189.779C49.3165 189.05 49.5229 188.192 49.4469 187.335C49.4469 186.726 49.2685 186.401 49.3105 186.38C49.5022 186.657 49.6212 186.978 49.6567 187.314C49.8253 188.229 49.6616 189.174 49.1951 189.979C48.85 190.59 48.355 191.104 47.7566 191.471C47.1582 191.838 46.4762 192.046 45.7748 192.077C44.9094 192.109 44.0553 191.872 43.3297 191.4C42.6041 190.927 42.0425 190.241 41.7218 189.437C41.4012 188.633 41.3373 187.749 41.5388 186.906C41.7404 186.064 42.1976 185.305 42.8476 184.733C43.3724 184.271 44.0061 183.951 44.689 183.802C45.3719 183.654 46.0814 183.681 46.7505 183.883C47.6432 184.141 48.4138 184.711 48.9223 185.488C49.1212 185.754 49.2543 186.063 49.3105 186.391Z" fill="#263238"/>
<path d="M57.1791 206.125C57.1267 206.125 57.0008 205.821 56.6231 205.338C56.0913 204.667 55.3543 204.188 54.5248 203.974C53.9223 203.82 53.2911 203.817 52.6871 203.965C52.0831 204.113 51.5251 204.409 51.0625 204.824C50.501 205.331 50.1079 205.997 49.9364 206.734C49.7648 207.471 49.8228 208.242 50.1028 208.945C50.3827 209.647 50.871 210.248 51.5021 210.664C52.1332 211.081 52.8769 211.295 53.633 211.277C54.2622 211.271 54.88 211.107 55.4298 210.801C55.9796 210.495 56.4439 210.056 56.7805 209.524C57.2327 208.793 57.4387 207.937 57.368 207.08C57.368 206.471 57.1791 206.146 57.2316 206.125C57.4221 206.399 57.5411 206.717 57.5778 207.048C57.7431 207.968 57.5757 208.916 57.1057 209.724C56.7632 210.335 56.2701 210.849 55.6734 211.216C55.0766 211.583 54.396 211.792 53.6959 211.822C52.8305 211.854 51.9765 211.617 51.2509 211.145C50.5252 210.672 49.9636 209.987 49.643 209.182C49.3223 208.378 49.2584 207.494 49.46 206.652C49.6615 205.809 50.1187 205.05 50.7688 204.478C51.2965 204.021 51.9298 203.704 52.6112 203.553C53.2927 203.403 54.0009 203.425 54.6717 203.618C55.5623 203.886 56.3307 204.457 56.8434 205.233C57.0254 205.499 57.1406 205.805 57.1791 206.125Z" fill="#263238"/>
<path d="M119.552 84.15C119.552 84.15 119.667 84.4333 119.867 84.9788C120.066 85.5244 120.36 86.3532 120.737 87.4024C121.493 89.5007 122.605 92.6482 124.021 96.7189L124.095 96.9078H123.885L110.414 95.0403H110.55C105.85 98.7322 100.285 101.163 94.3825 102.101C92.7202 102.368 91.0405 102.511 89.357 102.531C88.4967 102.531 87.6259 102.458 86.7446 102.437L85.4332 102.374C84.9925 102.374 84.5519 102.248 84.1112 102.185C80.4246 101.735 76.8393 100.672 73.5042 99.0376C69.9443 97.3131 66.6936 95.0124 63.8834 92.2285C60.1674 88.5183 57.3258 84.0259 55.5657 79.0785C53.8056 74.1311 53.1713 68.8534 53.709 63.6298C54.2468 58.4063 55.943 53.3685 58.6741 48.8834C61.4052 44.3984 65.1024 40.5791 69.4964 37.7037C72.6351 35.6407 76.0907 34.1061 79.7257 33.1609L81.0582 32.8146L81.7191 32.6468L82.3906 32.5419L85.0764 32.1432C85.9682 32.0592 86.86 32.0383 87.7518 31.9858C88.632 31.9229 89.5155 31.9229 90.3957 31.9858C91.2665 32.0592 92.1478 31.9858 92.9976 32.1747L95.5471 32.5733C96.3864 32.7097 97.2047 32.972 98.0231 33.1714L99.2401 33.4861C99.6388 33.612 100.027 33.7694 100.415 33.9058C109.04 36.8963 116.157 43.1332 120.255 51.2903C122.393 55.541 123.65 60.1804 123.948 64.9294C124.346 70.8064 123.219 76.6865 120.674 81.9992C120.328 82.7022 120.055 83.2267 119.867 83.5625C119.678 83.8982 119.552 84.0871 119.552 84.0871C119.552 84.0871 119.625 83.9087 119.804 83.552C119.982 83.1953 120.255 82.6602 120.569 81.9573C121.507 79.9029 122.244 77.7633 122.773 75.5679C123.625 72.0975 123.916 68.5128 123.633 64.9504C123.193 58.1133 120.743 51.5586 116.59 46.1099C112.436 40.6611 106.765 36.5613 100.289 34.3254C99.9011 34.189 99.5234 34.0422 99.1247 33.9163L97.9286 33.6015C97.1208 33.4127 96.3129 33.1504 95.4841 33.0245L92.9661 32.6363C92.1268 32.4894 91.2665 32.5209 90.3957 32.4579C89.5297 32.3897 88.6597 32.3897 87.7938 32.4579C86.923 32.4579 86.0417 32.5314 85.1604 32.6048L82.5165 33.014L81.8555 33.1189L81.1946 33.2868L79.8831 33.6225C76.3057 34.5572 72.9064 36.0743 69.8217 38.1129C64.6605 41.4725 60.4856 46.144 57.7248 51.6488C54.9639 57.1535 53.7166 63.2933 54.1106 69.439C54.5046 75.5846 56.5257 81.515 59.9668 86.6221C63.4079 91.7292 68.1452 95.8295 73.6931 98.5025C76.989 100.133 80.5357 101.197 84.1847 101.65C84.6148 101.713 85.045 101.797 85.4856 101.839L86.7866 101.902C87.6574 101.902 88.5072 102.028 89.357 102.007C91.0191 101.994 92.6779 101.857 94.3195 101.598C100.161 100.699 105.675 98.3225 110.34 94.6941H110.403H110.414L123.906 96.6245L123.769 96.7819C122.395 92.7216 121.335 89.5637 120.622 87.3394L119.814 84.9159C119.625 84.4333 119.552 84.15 119.552 84.15Z" fill="#263238"/>
<path d="M90.6475 59.0751C90.8858 59.1909 91.0869 59.3713 91.2279 59.5957C91.3688 59.8201 91.444 60.0796 91.4448 60.3446V67.332C91.4431 67.5479 91.3917 67.7605 91.2945 67.9533C91.1974 68.1461 91.0571 68.314 90.8846 68.4439C90.7121 68.5737 90.5121 68.6621 90.2999 68.7022C90.0877 68.7423 89.8692 68.7329 89.6612 68.6749C89.0852 68.5277 88.4853 68.4982 87.8976 68.5883C87.3099 68.6785 86.7464 68.8864 86.241 69.1995C85.7779 69.4689 85.3739 69.8288 85.053 70.2579C84.7321 70.6869 84.501 71.1762 84.3735 71.6965C84.2853 72.2273 84.3029 72.7703 84.4253 73.2943C84.5478 73.8182 84.7726 74.3128 85.0869 74.7496C85.4185 75.242 85.8441 75.6642 86.3392 75.9919C86.8343 76.3195 87.3892 76.5463 87.9721 76.659C89.156 76.7775 90.345 76.49 91.3439 75.8437C92.3429 75.1975 93.0925 74.2308 93.4697 73.1024C93.5978 72.7672 93.8493 72.4937 94.1726 72.3379C94.4959 72.1821 94.8665 72.1559 95.2085 72.2645C95.5505 72.3732 95.838 72.6085 96.0121 72.9222C96.1863 73.236 96.2338 73.6045 96.1451 73.9522C95.559 75.7169 94.382 77.2255 92.8128 78.2232C91.2435 79.2209 89.3782 79.6467 87.5315 79.4288C86.5731 79.2589 85.6587 78.8984 84.8423 78.3685C84.0259 77.8387 83.3242 77.1503 82.7788 76.3443C82.2435 75.5924 81.8654 74.7404 81.6671 73.839C81.4688 72.9376 81.4544 72.0055 81.6247 71.0985C81.8301 70.2041 82.2149 69.3607 82.756 68.6195C83.297 67.8783 83.9829 67.2547 84.7722 66.7864C85.9372 66.0861 87.2738 65.7229 88.6331 65.7373V60.3446C88.6331 59.9735 88.7797 59.6175 89.0411 59.3542C89.3025 59.0908 89.6574 58.9415 90.0285 58.9387C90.2424 58.9376 90.4538 58.9842 90.6475 59.0751Z" fill="#292F36"/>
<path d="M88.717 56.1375C88.7108 55.9089 88.7726 55.6836 88.8947 55.4902C89.0167 55.2968 89.1935 55.1441 89.4025 55.0513C89.6115 54.9586 89.8434 54.93 90.0687 54.9692C90.2939 55.0085 90.5025 55.1138 90.6678 55.2717C90.8332 55.4297 90.9479 55.6332 90.9974 55.8565C91.0468 56.0797 91.0289 56.3126 90.9458 56.5257C90.8626 56.7387 90.7181 56.9222 90.5305 57.053C90.3429 57.1837 90.1207 57.2558 89.892 57.2601C89.5885 57.263 89.2958 57.1473 89.0763 56.9376C88.8568 56.7279 88.7279 56.4408 88.717 56.1375Z" fill="#292F36"/>
</svg>
